<svg width="63" height="61" viewBox="0 0 63 61" fill="none" xmlns="http://www.w3.org/2000/svg">
<path d="M39.8405 13.0351C36.9958 15.7637 31.5991 15.0113 31.5991 15.0113C31.5991 15.0113 30.8147 9.83502 33.6595 7.10643C36.5042 4.37784 41.9009 5.13021 41.9009 5.13021C41.9009 5.13021 42.6853 10.3065 39.8405 13.0351Z" fill="white" stroke="white" stroke-width="1.5" stroke-linejoin="round"/>
<path d="M10.5 35.3988C10.5 43.6615 16.2657 53.1519 22.0996 55.1574C24.1222 55.8527 26.2127 54.8931 27.9507 53.6983C29.2692 52.7919 30.8659 51.9264 32.1554 51.9264C33.4449 51.9264 35.0415 52.7919 36.36 53.6983C38.098 54.8931 40.1886 55.8527 42.2111 55.1574C46.3566 53.7323 50.4676 48.5279 52.5 42.6702C48.5645 41.5891 45.69 38.1736 45.69 34.1274C45.69 30.4206 48.1027 27.243 51.5335 25.9049C49.323 22.1394 45.7107 20.1426 41.6296 20.1426C39.5183 20.1426 37.578 20.9589 36.0106 21.9374C33.5088 23.4992 30.8019 23.4992 28.3002 21.9374C26.7327 20.9589 24.7924 20.1426 22.6811 20.1426C15.9537 20.1426 10.5 25.5687 10.5 35.3988Z" fill="white" stroke="white" stroke-width="1.5" stroke-linejoin="round"/>
</svg>
