<svg xmlns="http://www.w3.org/2000/svg" viewBox="0 0 696.88 343.42"><title>credsureAsset 4</title><g id="Layer_2" data-name="Layer 2"><g id="Layer_1-2" data-name="Layer 1"><g id="Layer_1-2-2" data-name="Layer 1-2"><path d="M360.15,283.22c-2.9,1.8-5.91,3.45-8.65,5.48-.75.55-1,2.23-.92,3.36a21.37,21.37,0,0,1-3.1,12,16.94,16.94,0,0,1-1.58,2.35c-2.29,2.78-4.93,3.69-7.09,2.46-2.52-1.42-3.83-5.25-2.78-8.33a19.55,19.55,0,0,1,6.8-9.27l4.1-3.19c-1.74-6-8.21-7.51-13-3.84a25.61,25.61,0,0,0-8.55,12.59c-.63,1.83-1.28,3.67-1.92,5.5l-.82.1a7.62,7.62,0,0,1-1.1-2.46,9.78,9.78,0,0,1,.68-3.37c4.42-12.88,8.92-25.74,13.31-38.63,1.27-3.74,2.22-7.58,3.35-11.5,1.85.3,2.19,1.39,1.7,2.95-1.61,5.1-3.19,10.2-4.82,15.29-1.88,5.89-3.81,11.77-5.7,17.66-.08.25.07.57.15,1.15a13.86,13.86,0,0,0,1.65-1c5.44-4.43,11.49-3.12,15.52,1.86,1.44,1.76,2.39,2.18,4.3.71,3.22-2.46,6.64-4.74,10-7.05.45-.31,1.28-.59,1.64-.38a2.47,2.47,0,0,1,1.1,1.64,9.29,9.29,0,0,1-.51,2.76c-1.42,5.37-2.93,10.72-4.27,16.11-.28,1.12,0,2.39,0,4.36,5.18-4.53,7.95-9.85,11-15s6.32-10.4,9.56-15.71c2.08.3,2.66,1.21,2.08,3.42-3,11.66-5.91,23.37-8.81,35.06a11,11,0,0,0-.32,3.28c12.37-17.48,26.15-33.36,46.15-42.27l.83.82a15.88,15.88,0,0,1-2.66,2.46c-20.29,11.63-35.05,28.58-46.43,48.64-2.07,3.67-2.73,8.13-4.1,12.19q-1.23,3.4-2.73,6.69c-.24.55-1,.87-1.52,1.3-.43-.64-1.3-1.33-1.24-1.9.35-2.79.27-5.91,1.57-8.21,7.13-12.72,8.61-27.1,12.41-40.78.92-3.28,1.64-6.64,2.4-10l-.83-.4c-1.84,3.19-3.56,6.46-5.58,9.54q-4.22,6.44-8.86,12.6c-.62.82-2.46,1.82-3,1.5a5.42,5.42,0,0,1-2.33-3.28c-.76-4.69.73-9.14,2-13.58l1.5-5.27Zm-13,7.71c-2.46,2.52-5.18,4.84-7.29,7.61-1.18,1.56-1.56,3.82-1.9,5.84a3,3,0,0,0,1.31,2.53,4.08,4.08,0,0,0,3.18-.48C346.18,303.93,349,296.09,347.13,290.93Z"/><path d="M449.24,296.7H429.08l-3.35,9.81H412l19.7-53.4h15l19.7,53.4H452.59Zm-3.35-9.89L439.2,267l-6.77,19.78Z"/><path d="M492.29,258.28c-2.13,0-3.68.46-4.64,1.37a6.37,6.37,0,0,0-1.6,4.41h7.69v11h-7.69v31.49h-13V275H468v-11h5.1v-.45q0-7.92,4.6-12.21T491,247.1c1.22,0,2.13,0,2.74.08v11.18Z"/><path d="M518.72,265.89a16.06,16.06,0,0,1,8.33-2.28v13.92h-3.72q-5.18,0-8,2.2t-2.85,7.46v19.32h-13V264.06h13v8A18.38,18.38,0,0,1,518.72,265.89Z"/><path d="M533.44,247.21a9.18,9.18,0,0,1,11.26,0,6.36,6.36,0,0,1,2.13,4.91A6.26,6.26,0,0,1,544.7,257a9.14,9.14,0,0,1-11.26,0,6.26,6.26,0,0,1-2.13-4.83A6.36,6.36,0,0,1,533.44,247.21Zm12.1,16.85v42.45h-13V264.06Z"/><path d="M579,265.74a12.76,12.76,0,0,1,5.09,6V250.22h13v56.29h-13v-7.68a12.81,12.81,0,0,1-5.09,6,15.41,15.41,0,0,1-8.37,2.2,17.16,17.16,0,0,1-9.39-2.62,17.93,17.93,0,0,1-6.55-7.57,29.25,29.25,0,0,1,0-23.16,18,18,0,0,1,6.55-7.53,17.17,17.17,0,0,1,9.39-2.63A15.41,15.41,0,0,1,579,265.74Zm-10.92,11.94q-2.55,2.73-2.55,7.61c0,3.24.85,5.78,2.55,7.6a9.55,9.55,0,0,0,13.46-.07,12.15,12.15,0,0,0,0-15.1,8.84,8.84,0,0,0-6.73-2.78A8.74,8.74,0,0,0,568.09,277.68Z"/><path d="M646,287.64H616.58c.16,3.2,1,5.49,2.44,6.89a7.86,7.86,0,0,0,5.63,2.09,7.72,7.72,0,0,0,4.79-1.44,6.79,6.79,0,0,0,2.51-3.73h13.77a18.08,18.08,0,0,1-3.65,8,19.56,19.56,0,0,1-7.15,5.56,24.47,24.47,0,0,1-20.73-.61,18.7,18.7,0,0,1-7.57-7.57,26,26,0,0,1,0-23.16,18.49,18.49,0,0,1,7.57-7.53,24.93,24.93,0,0,1,22.21,0,18.21,18.21,0,0,1,7.42,7.26,21.64,21.64,0,0,1,2.62,10.77A18.11,18.11,0,0,1,646,287.64Zm-15-11.75a8.28,8.28,0,0,0-5.74-2.09,8.52,8.52,0,0,0-5.94,2.13,8.92,8.92,0,0,0-2.66,6.24h16.58Q633.31,278,631,275.89Z"/><path d="M672.8,293.81l9.2-29.75h13.84l-15.06,42.45H664.66L649.6,264.06h13.84Z"/><path d="M690,208.86c-4.47,3-9.62,3.57-14.72,3.34a29,29,0,0,1-16.2-5.55c-4.27-3.16-4.5-4.84-1.11-8.44,2.33-2.49,4.05-2.11,6.3.15,4.79,4.81,13.42,6.33,18.37,3.22a5.11,5.11,0,0,0,2-3.89,5.19,5.19,0,0,0-2.44-3.8c-2.35-1-5.13-1.1-7.58-1.95-4.5-1.59-9.25-2.87-13.25-5.33-7.91-4.88-4.82-16.35,1.71-20.71,10.61-7.05,22.78-4.31,31.28,2.44,3.48,2.76,1.31,4.82-.29,6.94-1.76,2.3-4.27,3.06-6.29.56-3.11-3.9-7.09-4.22-11.64-4.31-3.84-.08-6.48,1.06-8.5,4.5,2.06,3.2,4.38,5.14,8.32,5.64a43.22,43.22,0,0,1,12.59,3.77C699.09,190.37,699.7,202.19,690,208.86Z"/><path d="M597.39,166.25q0,21.13,0,42.29a3.62,3.62,0,0,1-.43,2c-1.3,1.9-11.41,1.13-12.63-.95-4.73-8.07-9.42-16.19-14.19-24.24a16,16,0,0,0-4.7-5.07c-.06,1.28-.2,2.57-.2,3.86,0,8-.06,16.07,0,24.09,0,4.73-3.48,2.87-5.76,3.21-2.77.41-3.94-1.36-3.93-3.67.08-9,.48-17.94.54-26.91,0-4.59-.61-9.2-.51-13.77.05-2.2.49-4.22,3.94-4.7,7.11-1,10.38,2.86,13.32,8.27,4.07,7.47,8.51,14.75,12.8,22.1l1.25,0a37,37,0,0,0,.55-4.32c.06-7.32.15-14.64,0-22-.09-3.47,1.89-3.82,4.52-3.9S597.39,162.2,597.39,166.25Z"/><path d="M498.72,207.38c-1.87-5.19-3.67-10.39-5.61-15.55-3-8-6.39-15.85-9-24-1.31-4.14-3.28-5.86-7.46-5.31a12.74,12.74,0,0,1-3,0c-2.81-.25-4.15.9-5.08,3.71-2.49,7.44-5.49,14.72-8.21,22.07-2.43,6.58-4.81,13.18-7.06,19.82a4.33,4.33,0,0,0,.35,2.82,30.54,30.54,0,0,0,8.31.2c1-.17,2-2.38,2.4-3.83,2-7.23,2.53-7.73,9.93-7.72h1.27a18.42,18.42,0,0,0,3.79,0c4.4-.93,6.12,1.78,7.16,5.2,2.09,6.94,2,6.88,9.06,6.73C498.69,211.44,499.82,210.37,498.72,207.38Zm-28.65-16.23c1.79-5.77,3.5-11.23,5.46-17.53,3.73,5.56,3.79,11.77,6.7,17.53Z"/><path d="M398.37,175.11a25,25,0,0,0-17.2-13.17c-7-1.57-17.76,2.16-22.49,8.58-3.66,5-4.68,10.28-4.31,16.17.21,3.2-.22,6.61.73,9.58,4.67,14.57,17.94,18.81,30.6,14.59C398.55,206.57,404.9,187.25,398.37,175.11Zm-9.08,11.14c0,9.82-2.63,14-9.87,16.28-3.68,1.17-9.4-.66-11.28-4-4.24-7.61-4.28-15.44,0-23,2.56-4.48,11.7-5.48,15.73-1.92S390,181.44,389.29,186.25Z"/><path d="M296.71,211.51c-9.44-.15-18.9-.12-28.35,0-2.83,0-3.64-1.12-3.6-3.79.13-6.89.05-13.82.05-20.73,0-6.62.11-13.26-.05-19.88-.1-3.8,1.64-4.77,5.12-4.61,4.85.25,5.69.66,5.7,4.64.05,10.3.12,20.6,0,30.88-.07,3.33,1,4.55,4.36,4.41,5.64-.23,11.29.08,16.93-.11,3.94-.1,3.24,2.54,3.33,4.87C300.28,209.67,300.13,211.57,296.71,211.51Z"/><path d="M695,97.5c-5.57-17.82-17-24-33.34-25.48-5.4-.49-10.58.78-16,2.12C633.23,77.25,626,85.08,622.21,96.51c-3.1,9.49-2.82,19.31-1,29.18,2.22,12,9.14,20.14,20,24.69,9.14,3.83,18.84,4.24,28.67,2.65,10.28-1.67,18.69-6,23.75-15.51,1.18-2.18,2.05-4-1.69-4.79a35.17,35.17,0,0,1-10.47-3.68c-3-1.75-4.38-1.31-6.08,1.36a13.79,13.79,0,0,1-8.59,6c-5.57,1.48-10.76.46-16-1.06-3.76-1.1-8.73-9.45-8.15-13.67h13.82c11.7,0,23.41,0,35.11,0,2.5,0,4.87-.41,4.71-3.4C696,111.4,697.18,104.5,695,97.5Zm-19.89,8.32c-10.39,0-20.54,0-30.67,0-2.26,0-3.14-.53-2.38-3.34,1.72-6.41,5.08-11.09,11.58-12.85s12.46-.79,17.13,4.24C673.67,97,676.52,100.41,675.11,105.82Z"/><path d="M612.58,78.2c-.53,4.82-1.28,9.61-2,14.49-3.22-.5-6.3-1.14-9.41-1.44-10.9-1.09-19,8.69-19.06,18.73-.1,12.56-.12,25.11.05,37.67,0,3.48-1,4.8-4.53,4.61a103.23,103.23,0,0,0-14,0c-2.9.23-3.59-1.4-4.12-3.45a11.51,11.51,0,0,1-.11-2.94V79.42c0-4.91,0-4.91,4.91-4.93,3.53,0,7.08.25,10.58-.06,3.89-.35,5,1.28,4.68,4.87a40.93,40.93,0,0,0,.34,6.24c3.83-3.77,6.37-7.23,9.76-9.38A26.3,26.3,0,0,1,608,72C611.33,72.48,613,74.62,612.58,78.2Z"/><path d="M539,146c0,5-1.13,6.71-6.33,6.28a74.74,74.74,0,0,0-10.15,0c-2.76.12-4-.94-3.66-3.7a5.69,5.69,0,0,0,0-2.1c-.3-1.15-.81-2.23-1.22-3.34a10.88,10.88,0,0,0-2.71,1.57c-9,9.84-20.31,10-32.36,8.1-11.84-1.85-18.39-13.18-18.62-23.66-.35-16.91,0-33.84-.13-50.76,0-3,1-4,3.92-3.89,4.92.17,9.87.21,14.8,0,3.28-.13,4,1.22,4,4.24-.12,14.67-.06,29.33,0,44,0,6.73,2.77,11.5,7.14,12.78,8.3,2.46,16.86-1.46,19.5-6.36a24,24,0,0,0,3.29-12.28c-.26-12.68,0-25.37-.15-38.07-.06-3.41,1.08-4.47,4.39-4.3a119.74,119.74,0,0,0,13.53,0c3.62-.21,5,.86,4.87,4.69-.23,11.13-.07,22.29-.07,33.42S538.92,134.82,539,146Z"/><path d="M447,130.61c-4.86,13.41-14.84,19-28,21.74s-26.15,1.58-38.76-2.09c-7.83-2.28-14-8-19.29-14.24-.53-.62-.3-2.61.31-3.37,3.2-4,6.65-7.9,10-11.84,1.58-1.86,2.73-1.83,4.08.38a28.08,28.08,0,0,0,19,13.35c8.47,1.62,17.12,2.58,25.19-2.35,3.16-1.92,5.28-4.62,5.08-8a8.07,8.07,0,0,0-6.48-7.69c-7.37-1.83-14.65-4-22-5.81-8.93-2.2-17.58-5-24.79-10.9-6.72-5.43-9.42-17-7.66-25,1.35-6.19,3.43-11.94,8.19-16a66.4,66.4,0,0,1,14.08-8.69c3.28-1.57,7.16-2.11,10.83-2.64,2.78-.4,5.65-.08,9.07-.08a49,49,0,0,1,25.28,5.19,39.52,39.52,0,0,1,15.74,13.26c.53.81.63,2.79.06,3.35-3.78,3.85-7.73,7.53-11.79,11.08-1.62,1.42-3.1,1.07-4.4-1C423.11,67,412.71,64.49,399,66.39c-5.89.81-10.2,3.51-12.18,9.17-1.3,3.71.72,7.92,4.17,10,6,3.57,12.61,4.74,19.33,5.93,10.26,1.83,20.36,4.55,28.91,10.82C446.47,107.62,450.41,121.15,447,130.61Z"/><path d="M344.19,87.81c0-14.25,0-28.48,0-42.73,0-4.73-.57-5.28-5.38-5.31-4,0-7.89,0-11.84,0-4.84,0-5.4.56-5.4,5.29,0,10.87,0,21.71-.05,32.58a35.14,35.14,0,0,1-.74,4.92c-1.59-1.49-2.55-2.27-3.38-3.2a22.75,22.75,0,0,0-14.25-7.09c-16.79-2-29.7,5.18-35.34,20.85-5,13.93-5.3,28.88,1.63,43,4.18,8.54,10.11,14.47,19.83,16.53,8.62,1.82,16.86,1.79,24.4-3.11,3.34-2.17,6.08-5.23,9.5-8.22a52.93,52.93,0,0,1,.86,7.14c0,2.68.85,3.84,3.66,3.74a97.43,97.43,0,0,1,11.84,0c3.78.27,4.79-1.13,4.76-4.81C344.1,127.57,344.19,107.69,344.19,87.81Zm-22.66,25.3c-.07,7.17-.42,14.2-6.19,19.63s-18,4.95-23-1.35c-5.61-7.16-6.77-15.37-5.28-24.08.42-2.38,1.39-4.65,2-7,3.12-11.14,15.95-13.66,24.86-8.07,5.64,3.54,7.18,9.81,7.55,16.21C321.61,110,321.53,111.55,321.53,113.11Z"/><path d="M201.82,121.7c14.79,0,29.61,0,44.41,0,2.71,0,4.85-.52,4.79-3.8-.14-8.16.52-16.26-2.85-24.23-2.84-6.7-6.82-12-12.73-15.9-5.66-3.75-12.1-5.38-18.78-5.81-5.74-.36-11.2.84-16.83,2.26-11.9,3-19.18,10.5-22.91,21.45a52.28,52.28,0,0,0-.37,33.2c3.22,10.39,9.61,17.45,19.29,21.51,9.16,3.84,18.82,4.1,28.68,2.67a32.68,32.68,0,0,0,19.66-9.79,23,23,0,0,0,4.15-7c.63-1.48.49-3.12-2-3.65-3.35-.73-6.94-1.48-9.76-3.28-3.45-2.18-4.91-1.43-7,1.66-1.36,2-4,3.36-6.28,4.47-5.88,2.89-11.92,1.83-17.82-.06-4.38-1.4-8.81-8.75-8.15-13.68Zm-4.6-15.88c-1.14-9.88,9.14-18.88,18.57-17.08,7.63,1.45,11.92,6.21,14.28,13.17.67,2,.84,3.92-2.26,3.92C217.71,105.8,207.6,105.82,197.22,105.82Z"/><path d="M194,58.21c-4.19,3-8.65,5.51-12.78,8.55-8.39,6.15-14.8,14.22-20.67,22.65a174.2,174.2,0,0,0-20.08,39.31c-1.5,4-3,7.94-4.3,12-3.22,10.06-16.25,16.25-26.06,6.47-4.18-4.18-5.43-9.82-6.85-15.2-3.14-11.91-10.88-20-21.36-25.28-6.44-3.24-9.83-7.43-9.29-14.55-1-11.75,9-18,19.1-15.7,4.42,1,8.62,3.88,12.4,6.62a141.85,141.85,0,0,1,13.47,11.67c2.09,2,3.25,2.23,4.5-.65,5.33-12.28,12.85-23.27,21.13-33.58,8.76-10.9,18.79-20.61,31.33-27.33,2.45-1.31,4.48-1.42,6.21,1,5,7,10,14,14.83,21.07C195.85,55.68,194.83,57.6,194,58.21Z"/><path d="M165.38,193.83c-5.75,3.16-10.92,6.76-16.63,8.94a165.12,165.12,0,0,1-26.1,7.9c-8.41,1.7-17.09,2.72-25.78.89-7.86-1.65-16-2.26-23.61-4.62a103.53,103.53,0,0,1-20.67-9.36A102.45,102.45,0,0,1,14.5,159.41c-5.37-9.26-9.86-19.15-11.37-30-1-7.56-3.2-15.09-3.13-22.61.11-8.67,1.88-17.37,3.37-26C5.27,70,9.84,60.06,15.49,50.69a109.79,109.79,0,0,1,22.2-25.9c9-8,19.31-13.58,30.22-18C75.26,3.89,83.26,2.24,91.11,1c6.61-1,13.43-1,20.14-.93a87.13,87.13,0,0,1,34.54,7.83c4.38,2,8.52,4.47,12.79,6.68,2.76,1.42,1.89,2.75.11,4.33q-12.23,10.9-24.35,21.88c-.71.66-1.1,1.77-1.9,2.2-1.31.72-3.26,1.91-4.21,1.43-9.82-4.91-20.43-4.74-30.74-3.77C85.07,41.8,74,47,64.08,54.92A61.09,61.09,0,0,0,46.4,77.65c-3.31,7.29-6.43,15.07-6.2,23.48.17,5.74-.2,11.61,1,17.15,3.16,14.94,10.29,27.92,22,37.85a65.05,65.05,0,0,0,18.86,11.08,66.86,66.86,0,0,0,25.54,4.59,49.12,49.12,0,0,0,20.22-4.21c4-1.86,8-3.59,11.84-5.71,2.3-1.28,3.66-.5,4.85,1.25,4.59,6.76,9.11,13.57,13.68,20.34C160.33,186.66,162.58,189.8,165.38,193.83Z"/></g></g></g></svg>