<svg width="94" height="28" viewBox="0 0 94 28" fill="none" xmlns="http://www.w3.org/2000/svg">
<path d="M33.4712 15.9141H26.1294C26.403 17.419 27.3151 18.103 28.7287 18.103C30.1423 18.103 30.7351 17.647 31.0088 16.8261L33.3344 17.6926C32.6504 19.3342 31.0544 20.2462 28.7287 20.2462C25.3086 20.2462 23.3478 18.2398 23.3478 14.8653C23.3478 11.4452 25.2174 9.48438 28.5463 9.48438C31.784 9.48438 33.5624 11.4452 33.5624 14.8197C33.5624 15.0933 33.5624 15.6861 33.4712 15.9597V15.9141ZM26.1294 13.9533H30.9632C30.7351 12.4028 29.8687 11.582 28.5463 11.582C27.1783 11.582 26.3574 12.4028 26.1294 13.9533Z" fill="white"/>
<path d="M45.9659 5.15303V20.0646H43.4578L43.321 18.1949C42.7282 19.4262 41.497 20.247 39.901 20.247C37.1649 20.247 35.4777 18.2405 35.4777 14.866C35.4777 11.4916 37.1649 9.43952 39.901 9.43952C42.637 9.43952 42.5458 10.1691 43.1386 11.3092V5.10742H45.9659V5.15303ZM43.1386 15.4589V14.2732C43.0018 12.6316 42.1354 11.674 40.7674 11.674C39.3994 11.674 38.3505 12.7684 38.3505 14.866C38.3505 16.9637 39.2625 18.0581 40.7674 18.0581C42.2722 18.0581 43.0018 17.1461 43.1386 15.4589Z" fill="white"/>
<path d="M59.9198 8.80247L57.959 10.7177C57.275 9.25848 56.1349 8.48326 54.2653 8.48326C52.3956 8.48326 51.666 9.21288 51.666 10.1705C51.666 11.1281 52.3956 11.5841 54.8125 11.9945C58.5062 12.6786 59.8742 13.8186 59.8742 16.0986C59.8742 18.6523 57.5486 20.2027 54.2653 20.2027C50.982 20.2027 49.386 19.2907 48.2459 17.6491L49.9332 15.597C51.0276 17.3755 52.3044 17.8315 54.1741 17.8315C56.0437 17.8315 56.9101 17.2843 56.9101 16.2354C56.9101 15.1866 56.1805 15.0498 53.9461 14.5938C50.1156 13.8186 48.702 12.6786 48.702 10.3985C48.702 7.98165 50.754 6.06641 54.3109 6.06641C57.8678 6.06641 58.5974 6.88722 59.9654 8.71127L59.9198 8.80247Z" fill="white"/>
<path d="M72.0953 9.66797V20.0194H69.5872L69.496 18.241C68.812 19.609 67.5352 20.2474 65.8479 20.2474C64.1607 20.2474 62.1999 19.1986 62.1999 16.5537V9.71357H65.0271V15.8241C65.0271 17.5114 65.7111 18.013 66.8512 18.013C67.9912 18.013 69.268 17.1465 69.268 15.2313V9.66797H72.0953Z" fill="white"/>
<path d="M82.0363 9.71365L81.6715 12.2217C81.3979 12.0393 80.8963 11.9025 80.3491 11.9025C79.1179 11.9025 77.841 12.8145 77.841 14.6842V20.0651H75.0138V9.71365H77.4762L77.6586 11.7657C78.2058 10.3521 79.2547 9.53125 80.8507 9.53125C82.4467 9.53125 81.7171 9.62245 81.9907 9.75926L82.0363 9.71365Z" fill="white"/>
<path d="M93.2086 15.9141H85.8668C86.1404 17.419 87.0525 18.103 88.4661 18.103C89.8797 18.103 90.4725 17.647 90.7462 16.8261L93.0718 17.6926C92.3878 19.3342 90.7918 20.2462 88.4661 20.2462C85.046 20.2462 83.0852 18.2398 83.0852 14.8653C83.0852 11.4452 84.9548 9.48438 88.2837 9.48438C91.5214 9.48438 93.2998 11.4452 93.2998 14.8197C93.2998 15.0933 93.2998 15.6861 93.2086 15.9597V15.9141ZM85.8212 13.9533H90.655C90.4269 12.4028 89.5605 11.582 88.2381 11.582C86.9157 11.582 86.0492 12.4028 85.8212 13.9533Z" fill="white"/>
<path d="M21.9797 25.5822C20.0189 26.9046 17.83 27.6798 15.5044 27.9078C15.5044 27.9078 15.4588 27.9078 15.4132 27.9078C15.0027 27.9078 14.5467 27.9534 14.0907 27.9534C6.33855 27.9534 0 21.6605 0 13.8627C0 12.8595 0.0912016 11.9019 0.319207 10.9899C1.32243 6.06494 4.83371 2.28005 9.21141 0.684016C9.84983 0.456011 10.4882 0.273608 11.1723 0.136805C11.1723 0.136805 11.2179 0.136805 11.2635 0.136805C11.4459 0.136805 11.6283 0.0456004 11.8107 0.0456004C11.8107 0.0456004 11.9019 0.0456004 11.9475 0.0456004C12.1299 0.0456004 12.3123 0 12.4947 0C12.5403 0 12.5859 0 12.6315 0C12.8139 0 12.9963 0 13.1787 0C13.2243 0 13.2699 0 13.3155 0C13.4979 0 13.6803 0 13.8627 0H14.0907C14.3187 0 14.5011 0 14.7291 0C16.69 0.0912021 18.6052 0.592812 20.3381 1.45923C20.7029 1.64164 21.0677 1.86964 21.4781 2.09765C19.8365 3.14647 18.4684 4.4689 17.374 5.83694C16.3252 5.42653 15.2308 5.15292 14.0451 5.15292C9.16581 5.15292 5.19852 9.12021 5.19852 13.9995C5.19852 18.8788 9.16581 22.8461 14.0451 22.8461C18.9244 22.8461 17.602 22.2989 19.0156 21.3413L21.9341 25.719L21.9797 25.5822Z" fill="white"/>
<path d="M26.2206 7.38688C24.2597 8.2077 22.7093 9.84933 21.5693 11.3998C21.2045 11.9014 20.8853 12.403 20.6117 12.9046C19.0612 15.5495 18.286 18.1031 18.1948 18.3767C17.9212 19.2888 17.1004 19.9272 16.1428 19.9272C16.0516 19.9272 16.006 19.9272 15.9148 19.9272C15.0939 19.836 14.3643 19.1975 14.1363 18.3311C13.5435 16.0967 12.8595 14.7742 10.8074 13.8622C9.89542 13.4518 9.43941 12.4486 9.71301 11.4454C9.94102 10.5333 10.7618 9.89494 11.6739 9.94054C11.9475 9.94054 12.1755 9.98614 12.4491 10.1229C14.0907 10.8526 15.2307 11.8102 16.0516 12.9046C16.8268 11.3086 17.8756 9.48452 19.198 7.84289C20.4293 6.33805 21.9797 4.92442 23.8037 3.9668C24.7614 4.97002 25.5822 6.11005 26.2206 7.34128V7.38688Z" fill="white"/>
<path d="M36.8001 26.8132H40.129V27.862H35.4777V21.5234H36.8001V26.8132Z" fill="white"/>
<path d="M50.4803 21.4336C51.1188 21.4336 51.666 21.5704 52.122 21.844C52.578 22.1176 52.9428 22.4824 53.1708 22.984C53.3988 23.4856 53.5356 24.0329 53.5356 24.7169C53.5356 25.4009 53.3988 25.9937 53.1708 26.4497C52.9428 26.9513 52.578 27.3161 52.122 27.5897C51.666 27.8633 51.1188 28.0001 50.4803 28.0001C49.8419 28.0001 49.2947 27.8633 48.8387 27.5897C48.3827 27.3161 48.0179 26.9513 47.7899 26.4497C47.5619 25.9481 47.4251 25.4009 47.4251 24.7169C47.4251 24.0329 47.5619 23.44 47.7899 22.984C48.0179 22.4824 48.3827 22.1176 48.8387 21.844C49.2947 21.5704 49.8419 21.4336 50.4803 21.4336ZM50.4803 22.528C50.1155 22.528 49.7963 22.6192 49.5683 22.756C49.3403 22.9384 49.1123 23.1664 48.9755 23.4856C48.8387 23.8048 48.7931 24.2153 48.7931 24.6713C48.7931 25.1273 48.8387 25.5377 48.9755 25.8569C49.1123 26.1761 49.2947 26.4497 49.5683 26.5865C49.7963 26.7689 50.1155 26.8145 50.4803 26.8145C50.8452 26.8145 51.1188 26.7233 51.3924 26.5865C51.6204 26.4041 51.8484 26.1761 51.9852 25.8569C52.122 25.5377 52.1676 25.1273 52.1676 24.6713C52.1676 24.2153 52.122 23.8048 51.9852 23.4856C51.8484 23.1664 51.666 22.9384 51.3924 22.756C51.1644 22.5736 50.8452 22.528 50.4803 22.528Z" fill="white"/>
<path d="M66.8511 27.9089H65.4831L64.9359 26.3584H62.519L61.9718 27.9089H60.6038L62.9294 21.5703H64.5255L66.8511 27.9089ZM62.8382 25.3552H64.6623L63.7503 22.5735L62.8382 25.3552Z" fill="white"/>
<path d="M79.9387 21.569V27.9076H78.4338L76.1994 24.1683L75.6522 23.1195V24.2139V27.862H74.4666V21.5234H75.9714L78.2058 25.2171L78.753 26.266V25.1715V21.5234H79.9387V21.569Z" fill="white"/>
<path d="M90.6549 21.4343C91.2477 21.4343 91.7494 21.5255 92.1598 21.7535C92.6158 21.9359 92.9806 22.2551 93.2542 22.6199L92.5246 23.4863C92.251 23.1671 91.9774 22.8935 91.6582 22.7567C91.339 22.6199 90.9741 22.5287 90.5637 22.5287C90.1533 22.5287 90.0621 22.5287 89.8797 22.6199C89.6973 22.7111 89.5605 22.8023 89.5149 22.8935C89.4237 23.0303 89.3781 23.1215 89.3781 23.2583C89.3781 23.3951 89.4237 23.5775 89.5605 23.7143C89.6973 23.8511 89.9253 23.9423 90.2445 23.9879L91.4302 24.2615C92.0686 24.3983 92.5246 24.6264 92.7982 24.9C93.0718 25.1736 93.2086 25.5384 93.2086 25.9944C93.2086 26.4504 93.1174 26.7696 92.8894 27.0432C92.6614 27.3624 92.3878 27.5904 91.9774 27.7272C91.567 27.864 91.1565 27.9552 90.6093 27.9552C90.0621 27.9552 89.7429 27.9096 89.3781 27.8184C89.0133 27.7272 88.6941 27.5448 88.3749 27.3624C88.1013 27.18 87.8277 26.952 87.6453 26.724L88.3749 25.812C88.5117 25.9944 88.6941 26.1768 88.9221 26.3592C89.1501 26.5416 89.3781 26.6328 89.6517 26.724C89.9253 26.8152 90.2445 26.8608 90.5181 26.8608C90.7917 26.8608 91.0197 26.8608 91.2021 26.7696C91.3846 26.724 91.5214 26.6328 91.6126 26.496C91.7038 26.4048 91.7494 26.268 91.7494 26.0856C91.7494 25.9032 91.7038 25.7664 91.567 25.6752C91.4758 25.5384 91.2478 25.4472 90.9285 25.4016L89.6517 25.128C89.2869 25.0368 88.9677 24.9 88.6941 24.7632C88.4205 24.6264 88.2381 24.4439 88.1013 24.2159C87.9645 23.9879 87.8733 23.7143 87.8733 23.3951C87.8733 23.0759 87.9645 22.6655 88.1925 22.3919C88.3749 22.0727 88.6941 21.8447 89.0589 21.6623C89.4237 21.4799 89.9253 21.3887 90.4725 21.3887L90.6549 21.4343Z" fill="white"/>
</svg>
