<svg width="125" height="50" viewBox="0 0 125 50" fill="none" xmlns="http://www.w3.org/2000/svg">
<path d="M53.1034 26.4366H47.5971C47.8023 27.5652 48.4863 28.0782 49.5465 28.0782C50.6068 28.0782 51.0514 27.7362 51.2566 27.1206L53.0008 27.7704C52.4878 29.0016 51.2908 29.6856 49.5465 29.6856C46.9815 29.6856 45.5108 28.1808 45.5108 25.6499C45.5108 23.0849 46.9131 21.6143 49.4097 21.6143C51.838 21.6143 53.1718 23.0849 53.1718 25.6157C53.1718 25.821 53.1718 26.2656 53.1034 26.4708V26.4366ZM47.5971 24.9659H51.2224C51.0514 23.8031 50.4015 23.1875 49.4097 23.1875C48.3837 23.1875 47.7681 23.8031 47.5971 24.9659Z" fill="#0B2947"/>
<path d="M62.4744 18.3653V29.5489H60.5934L60.4908 28.1467C60.0462 29.0701 59.1227 29.6857 57.9257 29.6857C55.8737 29.6857 54.6082 28.1809 54.6082 25.65C54.6082 23.1192 55.8737 21.5801 57.9257 21.5801C59.9778 21.5801 59.9094 22.1273 60.354 22.9824V18.3311H62.4744V18.3653ZM60.354 26.0946V25.2054C60.2514 23.9742 59.6016 23.256 58.5755 23.256C57.5495 23.256 56.7629 24.0768 56.7629 25.65C56.7629 27.2233 57.4469 28.0441 58.5755 28.0441C59.7042 28.0441 60.2514 27.3601 60.354 26.0946Z" fill="#0B2947"/>
<path d="M72.9399 21.1019L71.4692 22.5383C70.9562 21.4439 70.1012 20.8624 68.699 20.8624C67.2967 20.8624 66.7495 21.4097 66.7495 22.1279C66.7495 22.8461 67.2967 23.1881 69.1094 23.4959C71.8796 24.0089 72.9057 24.8639 72.9057 26.574C72.9057 28.4892 71.1614 29.6521 68.699 29.6521C66.2365 29.6521 65.0395 28.968 64.1844 27.7368L65.4499 26.1978C66.2707 27.5316 67.2283 27.8736 68.6306 27.8736C70.0328 27.8736 70.6826 27.4632 70.6826 26.6766C70.6826 25.89 70.1354 25.7874 68.4595 25.4454C65.5867 24.8639 64.5265 24.0089 64.5265 22.2989C64.5265 20.4862 66.0655 19.0498 68.7332 19.0498C71.4008 19.0498 71.948 19.6654 72.9741 21.0334L72.9399 21.1019Z" fill="#0B2947"/>
<path d="M82.0715 21.751V29.5146H80.1904L80.122 28.1807C79.609 29.2068 78.6514 29.6856 77.386 29.6856C76.1205 29.6856 74.6499 28.8989 74.6499 26.9153V21.7852H76.7704V26.3681C76.7704 27.6335 77.2834 28.0097 78.1384 28.0097C78.9934 28.0097 79.951 27.3599 79.951 25.9235V21.751H82.0715Z" fill="#0B2947"/>
<path d="M89.5272 21.7852L89.2536 23.6663C89.0484 23.5295 88.6722 23.4269 88.2618 23.4269C87.3384 23.4269 86.3808 24.1109 86.3808 25.5131V29.5488H84.2603V21.7852H86.1072L86.244 23.3243C86.6544 22.2641 87.441 21.6484 88.638 21.6484C89.835 21.6484 89.2878 21.7168 89.493 21.8194L89.5272 21.7852Z" fill="#0B2947"/>
<path d="M97.9065 26.4366H92.4001C92.6053 27.5652 93.2893 28.0782 94.3496 28.0782C95.4098 28.0782 95.8544 27.7362 96.0596 27.1206L97.8038 27.7704C97.2908 29.0016 96.0938 29.6856 94.3496 29.6856C91.7845 29.6856 90.3139 28.1808 90.3139 25.6499C90.3139 23.0849 91.7161 21.6143 94.2128 21.6143C96.641 21.6143 97.9749 23.0849 97.9749 25.6157C97.9749 25.821 97.9749 26.2656 97.9065 26.4708V26.4366ZM92.3659 24.9659H95.9912C95.8202 23.8031 95.1704 23.1875 94.1786 23.1875C93.1867 23.1875 92.5369 23.8031 92.3659 24.9659Z" fill="#0B2947"/>
<path d="M44.4848 33.6866C43.0141 34.6785 41.3725 35.2599 39.6283 35.4309C39.6283 35.4309 39.5941 35.4309 39.5599 35.4309C39.2521 35.4309 38.9101 35.4651 38.568 35.4651C32.7539 35.4651 28 30.7454 28 24.897C28 24.1446 28.0684 23.4264 28.2394 22.7424C28.9918 19.0487 31.6253 16.21 34.9086 15.013C35.3874 14.842 35.8662 14.7052 36.3792 14.6026C36.3792 14.6026 36.4134 14.6026 36.4476 14.6026C36.5844 14.6026 36.7212 14.5342 36.858 14.5342C36.858 14.5342 36.9264 14.5342 36.9606 14.5342C37.0974 14.5342 37.2342 14.5 37.371 14.5C37.4052 14.5 37.4394 14.5 37.4736 14.5C37.6104 14.5 37.7472 14.5 37.884 14.5C37.9182 14.5 37.9524 14.5 37.9866 14.5C38.1234 14.5 38.2602 14.5 38.397 14.5H38.568C38.739 14.5 38.8759 14.5 39.0469 14.5C40.5175 14.5684 41.9539 14.9446 43.2536 15.5944C43.5272 15.7312 43.8008 15.9022 44.1086 16.0732C42.8773 16.8599 41.8513 17.8517 41.0305 18.8777C40.2439 18.5699 39.4231 18.3647 38.5338 18.3647C34.8744 18.3647 31.8989 21.3402 31.8989 24.9996C31.8989 28.6591 34.8744 31.6346 38.5338 31.6346C42.1933 31.6346 41.2015 31.2242 42.2617 30.506L44.4506 33.7892L44.4848 33.6866Z" fill="#0B2947"/>
<path d="M47.6654 20.0406C46.1948 20.6563 45.032 21.8875 44.177 23.0503C43.9034 23.4265 43.664 23.8027 43.4587 24.1789C42.2959 26.1626 41.7145 28.0778 41.6461 28.283C41.4409 28.9671 40.8253 29.4459 40.1071 29.4459C40.0387 29.4459 40.0045 29.4459 39.9361 29.4459C39.3205 29.3775 38.7732 28.8987 38.6022 28.2488C38.1576 26.573 37.6446 25.5812 36.1056 24.8972C35.4216 24.5894 35.0796 23.8369 35.2848 23.0845C35.4558 22.4005 36.0714 21.9217 36.7554 21.9559C36.9606 21.9559 37.1316 21.9901 37.3368 22.0927C38.568 22.6399 39.4231 23.3581 40.0387 24.1789C40.6201 22.9819 41.4067 21.6139 42.3985 20.3827C43.3219 19.254 44.4848 18.1938 45.8528 17.4756C46.571 18.228 47.1866 19.083 47.6654 20.0064V20.0406Z" fill="#0B2947"/>
<path d="M55.6001 34.6099H58.0967V35.3965H54.6082V30.6426H55.6001V34.6099Z" fill="#3FA9F5"/>
<path d="M65.8603 30.5752C66.3391 30.5752 66.7495 30.6778 67.0915 30.883C67.4335 31.0882 67.7071 31.3618 67.8781 31.738C68.0491 32.1142 68.1517 32.5246 68.1517 33.0377C68.1517 33.5507 68.0491 33.9953 67.8781 34.3373C67.7071 34.7135 67.4335 34.9871 67.0915 35.1923C66.7495 35.3975 66.3391 35.5001 65.8603 35.5001C65.3815 35.5001 64.9711 35.3975 64.629 35.1923C64.287 34.9871 64.0134 34.7135 63.8424 34.3373C63.6714 33.9611 63.5688 33.5507 63.5688 33.0377C63.5688 32.5246 63.6714 32.08 63.8424 31.738C64.0134 31.3618 64.287 31.0882 64.629 30.883C64.9711 30.6778 65.3815 30.5752 65.8603 30.5752ZM65.8603 31.396C65.5867 31.396 65.3473 31.4644 65.1763 31.567C65.0052 31.7038 64.8342 31.8748 64.7316 32.1142C64.629 32.3536 64.5948 32.6614 64.5948 33.0035C64.5948 33.3455 64.629 33.6533 64.7316 33.8927C64.8342 34.1321 64.971 34.3373 65.1763 34.4399C65.3473 34.5767 65.5867 34.6109 65.8603 34.6109C66.1339 34.6109 66.3391 34.5425 66.5443 34.4399C66.7153 34.3031 66.8863 34.1321 66.9889 33.8927C67.0915 33.6533 67.1257 33.3455 67.1257 33.0035C67.1257 32.6614 67.0915 32.3536 66.9889 32.1142C66.8863 31.8748 66.7495 31.7038 66.5443 31.567C66.3733 31.4302 66.1339 31.396 65.8603 31.396Z" fill="#3FA9F5"/>
<path d="M78.1384 35.4316H77.1123L76.7019 34.2688H74.8893L74.4789 35.4316H73.4529L75.1971 30.6777H76.3941L78.1384 35.4316ZM75.1287 33.5164H76.4967L75.8127 31.4302L75.1287 33.5164Z" fill="#3FA9F5"/>
<path d="M87.954 30.6768V35.4307H86.8254L85.1495 32.6262L84.7391 31.8396V32.6604V35.3965H83.8499V30.6426H84.9785L86.6544 33.4128L87.0648 34.1995V33.3786V30.6426H87.954V30.6768Z" fill="#3FA9F5"/>
<path d="M95.9912 30.5752C96.4358 30.5752 96.812 30.6436 97.1198 30.8146C97.4618 30.9514 97.7354 31.1908 97.9406 31.4644L97.3934 32.1143C97.1882 31.8748 96.983 31.6696 96.7436 31.567C96.5042 31.4644 96.2306 31.396 95.9228 31.396C95.615 31.396 95.5466 31.396 95.4098 31.4644C95.273 31.5328 95.1704 31.6012 95.1362 31.6696C95.0678 31.7722 95.0336 31.8406 95.0336 31.9433C95.0336 32.0459 95.0678 32.1827 95.1704 32.2853C95.273 32.3879 95.444 32.4563 95.6834 32.4905L96.5726 32.6957C97.0514 32.7983 97.3934 32.9693 97.5986 33.1745C97.8038 33.3797 97.9064 33.6533 97.9064 33.9953C97.9064 34.3373 97.838 34.5767 97.667 34.7819C97.496 35.0213 97.2908 35.1923 96.983 35.2949C96.6752 35.3975 96.3674 35.4659 95.957 35.4659C95.5466 35.4659 95.3072 35.4317 95.0336 35.3633C94.76 35.2949 94.5206 35.1581 94.2812 35.0213C94.076 34.8845 93.8708 34.7135 93.7339 34.5425L94.2812 33.8585C94.3838 33.9953 94.5206 34.1321 94.6916 34.2689C94.8626 34.4057 95.0336 34.4741 95.2388 34.5425C95.444 34.6109 95.6834 34.6451 95.8886 34.6451C96.0938 34.6451 96.2648 34.6451 96.4016 34.5767C96.5384 34.5425 96.641 34.4741 96.7094 34.3715C96.7778 34.3031 96.812 34.2005 96.812 34.0637C96.812 33.9269 96.7778 33.8243 96.6752 33.7559C96.6068 33.6533 96.4358 33.5849 96.1964 33.5507L95.2388 33.3455C94.9652 33.2771 94.7258 33.1745 94.5206 33.0719C94.3154 32.9693 94.1786 32.8325 94.076 32.6615C93.9734 32.4905 93.905 32.2853 93.905 32.0459C93.905 31.8064 93.9734 31.4986 94.1444 31.2934C94.2812 31.054 94.5206 30.883 94.7942 30.7462C95.0678 30.6094 95.444 30.541 95.8544 30.541L95.9912 30.5752Z" fill="#3FA9F5"/>
</svg>
