<svg width="28" height="40" viewBox="0 0 28 40" fill="none" xmlns="http://www.w3.org/2000/svg">
<path d="M24.004 22.4883V38.4903C24.0042 38.7654 23.9288 39.0352 23.7859 39.2704C23.6431 39.5055 23.4383 39.6968 23.1941 39.8233C22.9498 39.9499 22.6755 40.0069 22.401 39.988C22.1265 39.9691 21.8626 39.8751 21.638 39.7163L14.002 34.3423L6.36995 39.7163C6.14534 39.8745 5.88157 39.9681 5.60743 39.9867C5.33328 40.0053 5.0593 39.9482 4.81538 39.8217C4.57146 39.6952 4.36697 39.5041 4.22423 39.2693C4.08149 39.0345 4.00598 38.7651 4.00595 38.4903L4.00195 22.4903C6.83738 24.7666 10.3658 26.0051 14.002 26.0003C17.6383 26.0045 21.1668 24.7653 24.002 22.4883" fill="url(#paint0_radial_380_525)"/>
<path d="M14 0C17.713 0 21.274 1.475 23.8995 4.1005C26.525 6.72601 28 10.287 28 14C28 17.713 26.525 21.274 23.8995 23.8995C21.274 26.525 17.713 28 14 28C10.287 28 6.72601 26.525 4.1005 23.8995C1.475 21.274 0 17.713 0 14C0 10.287 1.475 6.72601 4.1005 4.1005C6.72601 1.475 10.287 0 14 0Z" fill="url(#paint1_radial_380_525)"/>
<path d="M14.4579 7.28369L16.2819 10.9897L20.3699 11.5797C20.7899 11.6397 20.9559 12.1557 20.6539 12.4497L17.6959 15.3297L18.3959 19.4017C18.4124 19.4958 18.402 19.5926 18.3662 19.6811C18.3303 19.7696 18.2702 19.8463 18.1929 19.9024C18.1156 19.9584 18.024 19.9917 17.9288 19.9983C17.8335 20.0049 17.7382 19.9846 17.6539 19.9397L13.9999 18.0157L10.3459 19.9397C10.2616 19.984 10.1667 20.0039 10.0717 19.997C9.97674 19.9901 9.8856 19.9568 9.8086 19.9008C9.73159 19.8448 9.67179 19.7684 9.63597 19.6802C9.60015 19.592 9.58974 19.4955 9.60591 19.4017L10.3059 15.3317L7.34591 12.4517C7.27712 12.3853 7.22839 12.3008 7.20529 12.208C7.18219 12.1152 7.18564 12.0178 7.21526 11.9269C7.24487 11.836 7.29945 11.7552 7.37277 11.6938C7.44609 11.6324 7.53519 11.5929 7.62991 11.5797L11.7159 10.9897L13.5419 7.28369C13.5839 7.198 13.6491 7.12581 13.73 7.07531C13.811 7.02482 13.9045 6.99805 13.9999 6.99805C14.0953 6.99805 14.1888 7.02482 14.2698 7.07531C14.3508 7.12581 14.4159 7.198 14.4579 7.28369Z" fill="url(#paint2_radial_380_525)"/>
<defs>
<radialGradient id="paint0_radial_380_525" cx="0" cy="0" r="1" gradientUnits="userSpaceOnUse" gradientTransform="translate(14.002 19.7603) rotate(90) scale(27.5886 44.1518)">
<stop stop-color="#163697"/>
<stop offset="1" stop-color="#29C3FF"/>
</radialGradient>
<radialGradient id="paint1_radial_380_525" cx="0" cy="0" r="1" gradientUnits="userSpaceOnUse" gradientTransform="translate(-60.4999 -98.0009) rotate(56.615) scale(156.289 133.854)">
<stop offset="0.772" stop-color="#FFCD0F"/>
<stop offset="0.991" stop-color="#E67505"/>
</radialGradient>
<radialGradient id="paint2_radial_380_525" cx="0" cy="0" r="1" gradientUnits="userSpaceOnUse" gradientTransform="translate(17.4029 19.999) rotate(-106.66) scale(23.7468 34.2602)">
<stop stop-color="#B03111"/>
<stop offset="1" stop-color="#E67505"/>
</radialGradient>
</defs>
</svg>
