<svg width="170" height="61" viewBox="0 0 170 61" fill="none" xmlns="http://www.w3.org/2000/svg">
<g filter="url(#filter0_i_763_865)">
<path d="M3.13026 17.9701C3.41094 14.181 6.56706 11.25 10.3665 11.25H32.4444C36.2439 11.25 39.4 14.181 39.6807 17.9701L42.5801 57.1118C42.7048 58.7946 41.373 60.2287 39.6856 60.2287H3.12539C1.43795 60.2287 0.106224 58.7946 0.230878 57.1118L3.13026 17.9701Z" fill="url(#paint0_linear_763_865)"/>
<g filter="url(#filter1_i_763_865)">
<path d="M11.0021 15.8506C11.0021 16.587 11.5991 17.1839 12.3354 17.1839C13.0718 17.1839 13.6688 16.587 13.6688 15.8506C13.6688 15.1142 13.0718 14.5173 12.3354 14.5173C11.5991 14.5173 11.0021 15.1142 11.0021 15.8506ZM13.1742 6.83401L12.9253 6.81086L13.1742 6.83401ZM29.2741 6.83401L29.0252 6.85717L29.2741 6.83401ZM28.7796 15.8506C28.7796 16.587 29.3765 17.1839 30.1129 17.1839C30.8493 17.1839 31.4462 16.587 31.4462 15.8506C31.4462 15.1142 30.8493 14.5173 30.1129 14.5173C29.3765 14.5173 28.7796 15.1142 28.7796 15.8506ZM12.3354 15.8506L12.5844 15.8738L13.4231 6.85717L13.1742 6.83401L12.9253 6.81086L12.0865 15.8275L12.3354 15.8506ZM20.3991 0.25V0.5H22.0492V0.25V0H20.3991V0.25ZM29.2741 6.83401L29.0252 6.85717L29.864 15.8738L30.1129 15.8506L30.3618 15.8275L29.5231 6.81086L29.2741 6.83401ZM22.0492 0.25V0.5C25.6672 0.5 28.6901 3.25478 29.0252 6.85717L29.2741 6.83401L29.5231 6.81086C29.164 2.95138 25.9254 0 22.0492 0V0.25ZM13.1742 6.83401L13.4231 6.85717C13.7582 3.25478 16.7812 0.5 20.3991 0.5V0.25V0C16.523 0 13.2843 2.95137 12.9253 6.81086L13.1742 6.83401Z" fill="#E09213"/>
</g>
<path d="M20 36.75L31 51H22.8252L12 36.75L22.8252 20.25H31L20 36.75ZM22 36.75L33 51H31.8252L21 36.75L31.8252 20.25H33L22 36.75Z" fill="white"/>
</g>
<path d="M48.813 44.2285V27.4285H51.213V34.7245L57.933 27.4285H60.933L54.693 34.1005L61.053 44.2285H58.125L52.989 35.9725L51.213 37.8685V44.2285H48.813ZM74.5995 44.5165C73.6075 44.5165 72.7835 44.3485 72.1275 44.0125C71.4715 43.6765 70.9835 43.2285 70.6635 42.6685C70.3435 42.0925 70.1835 41.4765 70.1835 40.8205C70.1835 40.0205 70.3915 39.3405 70.8075 38.7805C71.2235 38.2045 71.8155 37.7645 72.5835 37.4605C73.3515 37.1565 74.2715 37.0045 75.3435 37.0045H78.4875C78.4875 36.3005 78.3835 35.7165 78.1755 35.2525C77.9675 34.7885 77.6555 34.4445 77.2395 34.2205C76.8395 33.9805 76.3275 33.8605 75.7035 33.8605C74.9835 33.8605 74.3675 34.0365 73.8555 34.3885C73.3435 34.7245 73.0235 35.2285 72.8955 35.9005H70.4955C70.5915 35.0525 70.8795 34.3325 71.3595 33.7405C71.8555 33.1325 72.4875 32.6685 73.2555 32.3485C74.0235 32.0125 74.8395 31.8445 75.7035 31.8445C76.8395 31.8445 77.7915 32.0445 78.5595 32.4445C79.3275 32.8445 79.9035 33.4125 80.2875 34.1485C80.6875 34.8685 80.8875 35.7325 80.8875 36.7405V44.2285H78.7995L78.6075 42.1885C78.4315 42.5085 78.2235 42.8125 77.9835 43.1005C77.7435 43.3885 77.4555 43.6365 77.1195 43.8445C76.7995 44.0525 76.4235 44.2125 75.9915 44.3245C75.5755 44.4525 75.1115 44.5165 74.5995 44.5165ZM75.0555 42.5725C75.5675 42.5725 76.0315 42.4685 76.4475 42.2605C76.8635 42.0525 77.2155 41.7725 77.5035 41.4205C77.8075 41.0525 78.0315 40.6445 78.1755 40.1965C78.3355 39.7325 78.4235 39.2605 78.4395 38.7805V38.7085H75.5835C74.8955 38.7085 74.3355 38.7965 73.9035 38.9725C73.4875 39.1325 73.1835 39.3565 72.9915 39.6445C72.7995 39.9325 72.7035 40.2685 72.7035 40.6525C72.7035 41.0525 72.7915 41.3965 72.9675 41.6845C73.1595 41.9565 73.4315 42.1725 73.7835 42.3325C74.1355 42.4925 74.5595 42.5725 75.0555 42.5725ZM92.1188 44.2285V32.1325H94.5188V44.2285H92.1188ZM93.3428 29.8525C92.8788 29.8525 92.4948 29.7085 92.1908 29.4205C91.9028 29.1325 91.7588 28.7645 91.7588 28.3165C91.7588 27.8845 91.9028 27.5325 92.1908 27.2605C92.4948 26.9725 92.8788 26.8285 93.3428 26.8285C93.7908 26.8285 94.1668 26.9725 94.4708 27.2605C94.7748 27.5325 94.9268 27.8845 94.9268 28.3165C94.9268 28.7645 94.7748 29.1325 94.4708 29.4205C94.1668 29.7085 93.7908 29.8525 93.3428 29.8525ZM105.951 44.2285V26.9485H108.351V34.1005C108.751 33.3965 109.303 32.8445 110.007 32.4445C110.727 32.0445 111.519 31.8445 112.383 31.8445C113.343 31.8445 114.167 32.0445 114.855 32.4445C115.543 32.8285 116.071 33.4125 116.439 34.1965C116.807 34.9645 116.991 35.9325 116.991 37.1005V44.2285H114.615V37.3405C114.615 36.2205 114.375 35.3725 113.895 34.7965C113.415 34.2045 112.703 33.9085 111.759 33.9085C111.119 33.9085 110.543 34.0605 110.031 34.3645C109.519 34.6685 109.111 35.1165 108.807 35.7085C108.503 36.2845 108.351 36.9885 108.351 37.8205V44.2285H105.951ZM128.06 44.2285V32.1325H130.22L130.388 33.8365C130.772 33.2125 131.284 32.7245 131.924 32.3725C132.564 32.0205 133.284 31.8445 134.084 31.8445C134.692 31.8445 135.244 31.9325 135.74 32.1085C136.236 32.2685 136.676 32.5165 137.06 32.8525C137.444 33.1885 137.756 33.6045 137.996 34.1005C138.428 33.3965 139.004 32.8445 139.724 32.4445C140.46 32.0445 141.236 31.8445 142.052 31.8445C143.028 31.8445 143.868 32.0445 144.572 32.4445C145.276 32.8285 145.812 33.4125 146.18 34.1965C146.548 34.9645 146.732 35.9245 146.732 37.0765V44.2285H144.356V37.3165C144.356 36.1965 144.124 35.3485 143.66 34.7725C143.212 34.1965 142.548 33.9085 141.668 33.9085C141.076 33.9085 140.548 34.0605 140.084 34.3645C139.62 34.6685 139.252 35.1085 138.98 35.6845C138.724 36.2605 138.596 36.9645 138.596 37.7965V44.2285H136.196V37.3165C136.196 36.1965 135.964 35.3485 135.5 34.7725C135.052 34.1965 134.388 33.9085 133.508 33.9085C132.948 33.9085 132.436 34.0605 131.972 34.3645C131.508 34.6685 131.14 35.1085 130.868 35.6845C130.596 36.2605 130.46 36.9645 130.46 37.7965V44.2285H128.06ZM161.842 44.5165C160.85 44.5165 160.026 44.3485 159.37 44.0125C158.714 43.6765 158.226 43.2285 157.906 42.6685C157.586 42.0925 157.426 41.4765 157.426 40.8205C157.426 40.0205 157.634 39.3405 158.05 38.7805C158.466 38.2045 159.058 37.7645 159.826 37.4605C160.594 37.1565 161.514 37.0045 162.586 37.0045H165.73C165.73 36.3005 165.626 35.7165 165.418 35.2525C165.21 34.7885 164.898 34.4445 164.482 34.2205C164.082 33.9805 163.57 33.8605 162.946 33.8605C162.226 33.8605 161.61 34.0365 161.098 34.3885C160.586 34.7245 160.266 35.2285 160.138 35.9005H157.738C157.834 35.0525 158.122 34.3325 158.602 33.7405C159.098 33.1325 159.73 32.6685 160.498 32.3485C161.266 32.0125 162.082 31.8445 162.946 31.8445C164.082 31.8445 165.034 32.0445 165.802 32.4445C166.57 32.8445 167.146 33.4125 167.53 34.1485C167.93 34.8685 168.13 35.7325 168.13 36.7405V44.2285H166.042L165.85 42.1885C165.674 42.5085 165.466 42.8125 165.226 43.1005C164.986 43.3885 164.698 43.6365 164.362 43.8445C164.042 44.0525 163.666 44.2125 163.234 44.3245C162.818 44.4525 162.354 44.5165 161.842 44.5165ZM162.298 42.5725C162.81 42.5725 163.274 42.4685 163.69 42.2605C164.106 42.0525 164.458 41.7725 164.746 41.4205C165.05 41.0525 165.274 40.6445 165.418 40.1965C165.578 39.7325 165.666 39.2605 165.682 38.7805V38.7085H162.826C162.138 38.7085 161.578 38.7965 161.146 38.9725C160.73 39.1325 160.426 39.3565 160.234 39.6445C160.042 39.9325 159.946 40.2685 159.946 40.6525C159.946 41.0525 160.034 41.3965 160.21 41.6845C160.402 41.9565 160.674 42.1725 161.026 42.3325C161.378 42.4925 161.802 42.5725 162.298 42.5725Z" fill="#2D004E"/>
<path d="M49.0205 56.2785C48.8538 56.2785 48.7172 56.2252 48.6105 56.1185C48.5038 56.0052 48.4505 55.8685 48.4505 55.7085C48.4505 55.5485 48.5038 55.4152 48.6105 55.3085C48.7172 55.1952 48.8538 55.1385 49.0205 55.1385C49.1872 55.1385 49.3238 55.1952 49.4305 55.3085C49.5372 55.4152 49.5905 55.5485 49.5905 55.7085C49.5905 55.8685 49.5372 56.0052 49.4305 56.1185C49.3238 56.2252 49.1872 56.2785 49.0205 56.2785ZM51.5006 56.2785C51.3339 56.2785 51.1972 56.2252 51.0906 56.1185C50.9839 56.0052 50.9306 55.8685 50.9306 55.7085C50.9306 55.5485 50.9839 55.4152 51.0906 55.3085C51.1972 55.1952 51.3339 55.1385 51.5006 55.1385C51.6672 55.1385 51.8039 55.1952 51.9106 55.3085C52.0172 55.4152 52.0706 55.5485 52.0706 55.7085C52.0706 55.8685 52.0172 56.0052 51.9106 56.1185C51.8039 56.2252 51.6672 56.2785 51.5006 56.2785ZM53.9806 56.2785C53.814 56.2785 53.6773 56.2252 53.5706 56.1185C53.464 56.0052 53.4106 55.8685 53.4106 55.7085C53.4106 55.5485 53.464 55.4152 53.5706 55.3085C53.6773 55.1952 53.814 55.1385 53.9806 55.1385C54.1473 55.1385 54.284 55.1952 54.3906 55.3085C54.4973 55.4152 54.5506 55.5485 54.5506 55.7085C54.5506 55.8685 54.4973 56.0052 54.3906 56.1185C54.284 56.2252 54.1473 56.2785 53.9806 56.2785ZM57.9307 56.3485C57.4641 56.3485 57.0874 56.2785 56.8007 56.1385C56.5141 55.9918 56.3107 55.7918 56.1907 55.5385C56.0707 55.2785 56.0241 54.9752 56.0507 54.6285H56.9107C56.9041 54.8085 56.9341 54.9752 57.0007 55.1285C57.0741 55.2818 57.1941 55.4052 57.3607 55.4985C57.5341 55.5918 57.7641 55.6385 58.0507 55.6385C58.2841 55.6385 58.4874 55.6052 58.6607 55.5385C58.8341 55.4652 58.9707 55.3652 59.0707 55.2385C59.1774 55.1118 59.2441 54.9618 59.2707 54.7885C59.3041 54.5818 59.2807 54.4185 59.2007 54.2985C59.1207 54.1785 58.9941 54.0885 58.8207 54.0285C58.6541 53.9685 58.4407 53.9185 58.1807 53.8785C57.9074 53.8385 57.6674 53.7852 57.4607 53.7185C57.2541 53.6452 57.0807 53.5518 56.9407 53.4385C56.8074 53.3185 56.7107 53.1718 56.6507 52.9985C56.5974 52.8185 56.5907 52.6085 56.6307 52.3685C56.6774 52.0818 56.7941 51.8285 56.9807 51.6085C57.1674 51.3818 57.4107 51.2052 57.7107 51.0785C58.0174 50.9518 58.3641 50.8885 58.7507 50.8885C59.3107 50.8885 59.7374 51.0218 60.0307 51.2885C60.3241 51.5485 60.4574 51.9185 60.4307 52.3985H59.5907C59.6041 52.1518 59.5274 51.9585 59.3607 51.8185C59.1941 51.6718 58.9507 51.5985 58.6307 51.5985C58.2907 51.5985 58.0207 51.6652 57.8207 51.7985C57.6274 51.9252 57.5174 52.0918 57.4907 52.2985C57.4707 52.4518 57.4907 52.5885 57.5507 52.7085C57.6107 52.8218 57.7241 52.9185 57.8907 52.9985C58.0574 53.0785 58.2874 53.1385 58.5807 53.1785C58.8607 53.2185 59.1041 53.2718 59.3107 53.3385C59.5174 53.4052 59.6907 53.4952 59.8307 53.6085C59.9707 53.7218 60.0674 53.8685 60.1207 54.0485C60.1807 54.2285 60.1874 54.4518 60.1407 54.7185C60.0874 55.0652 59.9607 55.3585 59.7607 55.5985C59.5607 55.8385 59.3007 56.0252 58.9807 56.1585C58.6674 56.2852 58.3174 56.3485 57.9307 56.3485ZM63.6498 56.3485C63.1898 56.3485 62.7998 56.2385 62.4798 56.0185C62.1665 55.7985 61.9398 55.4918 61.7998 55.0985C61.6665 54.6985 61.6398 54.2318 61.7198 53.6985C61.7865 53.2785 61.9031 52.8985 62.0698 52.5585C62.2365 52.2185 62.4498 51.9252 62.7098 51.6785C62.9698 51.4252 63.2598 51.2318 63.5798 51.0985C63.9065 50.9585 64.2531 50.8885 64.6198 50.8885C65.1131 50.8885 65.5098 50.9985 65.8098 51.2185C66.1098 51.4385 66.3165 51.7318 66.4298 52.0985C66.5431 52.4652 66.5665 52.8652 66.4998 53.2985C66.4931 53.3785 66.4798 53.4585 66.4598 53.5385C66.4465 53.6185 66.4298 53.7085 66.4098 53.8085H62.3298L62.4398 53.1585H65.7098C65.7631 52.8185 65.7398 52.5352 65.6398 52.3085C65.5465 52.0752 65.3998 51.8985 65.1998 51.7785C64.9998 51.6585 64.7598 51.5985 64.4798 51.5985C64.1998 51.5985 63.9265 51.6685 63.6598 51.8085C63.3998 51.9418 63.1731 52.1418 62.9798 52.4085C62.7931 52.6685 62.6631 52.9952 62.5898 53.3885L62.5398 53.6685C62.4665 54.0952 62.4765 54.4585 62.5698 54.7585C62.6631 55.0518 62.8165 55.2718 63.0298 55.4185C63.2431 55.5652 63.4898 55.6385 63.7698 55.6385C64.1431 55.6385 64.4498 55.5652 64.6898 55.4185C64.9365 55.2718 65.1331 55.0652 65.2798 54.7985H66.1098C65.9698 55.0918 65.7798 55.3585 65.5398 55.5985C65.3065 55.8318 65.0298 56.0152 64.7098 56.1485C64.3898 56.2818 64.0365 56.3485 63.6498 56.3485ZM67.5636 56.2285L68.8236 49.0285H69.6636L68.4036 56.2285H67.5636ZM70.2195 56.2285L71.4795 49.0285H72.3195L71.0595 56.2285H70.2195ZM78.5899 56.3485C78.2766 56.3485 78.0099 56.3018 77.7899 56.2085C77.5766 56.1085 77.4033 55.9852 77.2699 55.8385C77.1366 55.6918 77.0333 55.5485 76.9599 55.4085L76.7499 56.2285H75.9899L77.2599 49.0285H78.0999L77.5999 51.8385C77.8133 51.5318 78.0866 51.2985 78.4199 51.1385C78.7599 50.9718 79.1266 50.8885 79.5199 50.8885C79.9933 50.8885 80.3866 51.0018 80.6999 51.2285C81.0133 51.4552 81.2366 51.7685 81.3699 52.1685C81.5099 52.5618 81.5399 53.0185 81.4599 53.5385C81.3999 53.9385 81.2833 54.3118 81.1099 54.6585C80.9433 54.9985 80.7299 55.2952 80.4699 55.5485C80.2166 55.8018 79.9299 55.9985 79.6099 56.1385C79.2899 56.2785 78.9499 56.3485 78.5899 56.3485ZM78.6099 55.6185C78.9366 55.6185 79.2366 55.5352 79.5099 55.3685C79.7899 55.2018 80.0233 54.9652 80.2099 54.6585C80.4033 54.3452 80.5333 53.9818 80.5999 53.5685C80.6599 53.1752 80.6433 52.8318 80.5499 52.5385C80.4566 52.2452 80.3033 52.0185 80.0899 51.8585C79.8766 51.6985 79.6166 51.6185 79.3099 51.6185C78.9699 51.6185 78.6599 51.7052 78.3799 51.8785C78.1066 52.0452 77.8733 52.2852 77.6799 52.5985C77.4933 52.9052 77.3699 53.2652 77.3099 53.6785C77.2499 54.0718 77.2599 54.4152 77.3399 54.7085C77.4266 55.0018 77.5766 55.2285 77.7899 55.3885C78.0099 55.5418 78.2833 55.6185 78.6099 55.6185ZM84.8606 56.3485C84.3873 56.3485 83.984 56.2385 83.6506 56.0185C83.3173 55.7985 83.0806 55.4885 82.9406 55.0885C82.8006 54.6885 82.7706 54.2218 82.8506 53.6885C82.9173 53.2685 83.0373 52.8885 83.2106 52.5485C83.384 52.2018 83.604 51.9085 83.8706 51.6685C84.1373 51.4218 84.434 51.2318 84.7606 51.0985C85.094 50.9585 85.4473 50.8885 85.8206 50.8885C86.3006 50.8885 86.704 50.9985 87.0306 51.2185C87.364 51.4385 87.6006 51.7485 87.7406 52.1485C87.8873 52.5418 87.9173 53.0085 87.8306 53.5485C87.764 53.9752 87.644 54.3585 87.4706 54.6985C87.304 55.0385 87.0873 55.3318 86.8206 55.5785C86.554 55.8252 86.254 56.0152 85.9206 56.1485C85.594 56.2818 85.2406 56.3485 84.8606 56.3485ZM84.9806 55.6285C85.3006 55.6285 85.5973 55.5518 85.8706 55.3985C86.1506 55.2385 86.3873 55.0052 86.5806 54.6985C86.774 54.3852 86.904 54.0052 86.9706 53.5585C87.0373 53.1252 87.024 52.7652 86.9306 52.4785C86.8373 52.1918 86.684 51.9752 86.4706 51.8285C86.2573 51.6818 86.0006 51.6085 85.7006 51.6085C85.3873 51.6085 85.094 51.6885 84.8206 51.8485C84.5473 52.0085 84.3106 52.2418 84.1106 52.5485C83.9173 52.8552 83.7873 53.2318 83.7206 53.6785C83.6473 54.1052 83.6573 54.4652 83.7506 54.7585C83.8506 55.0452 84.0073 55.2618 84.2206 55.4085C84.434 55.5552 84.6873 55.6285 84.9806 55.6285ZM88.9874 56.2285L90.2474 49.0285H91.0874L89.8274 56.2285H88.9874ZM93.7833 56.3485C93.3233 56.3485 92.9366 56.2318 92.6233 55.9985C92.31 55.7652 92.0866 55.4485 91.9533 55.0485C91.82 54.6418 91.7933 54.1852 91.8733 53.6785C91.94 53.2718 92.0566 52.8985 92.2233 52.5585C92.39 52.2185 92.6 51.9252 92.8533 51.6785C93.1133 51.4318 93.4033 51.2385 93.7233 51.0985C94.0433 50.9585 94.3833 50.8885 94.7433 50.8885C95.1566 50.8885 95.4966 50.9752 95.7633 51.1485C96.0366 51.3152 96.2366 51.5452 96.3633 51.8385L96.8633 49.0285H97.7033L96.4333 56.2285H95.6733L95.7433 55.3885C95.6166 55.5552 95.46 55.7118 95.2733 55.8585C95.0866 56.0052 94.8666 56.1252 94.6133 56.2185C94.3666 56.3052 94.09 56.3485 93.7833 56.3485ZM94.0233 55.6185C94.37 55.6185 94.68 55.5352 94.9533 55.3685C95.2333 55.1952 95.4666 54.9552 95.6533 54.6485C95.84 54.3352 95.9633 53.9718 96.0233 53.5585C96.0833 53.1652 96.07 52.8252 95.9833 52.5385C95.9033 52.2452 95.7533 52.0185 95.5333 51.8585C95.32 51.6985 95.05 51.6185 94.7233 51.6185C94.4033 51.6185 94.1033 51.7052 93.8233 51.8785C93.5433 52.0452 93.3066 52.2818 93.1133 52.5885C92.9266 52.8952 92.8033 53.2552 92.7433 53.6685C92.6766 54.0618 92.6866 54.4052 92.7733 54.6985C92.8666 54.9918 93.02 55.2185 93.2333 55.3785C93.4533 55.5385 93.7166 55.6185 94.0233 55.6185ZM98.2542 56.2285L99.5142 49.0285H100.354L99.0942 56.2285H98.2542ZM101.1 58.4285L102.77 55.6785H102.48L101.33 51.0085H102.15L103.14 55.0685L105.58 51.0085H106.45L101.96 58.4285H101.1ZM105.685 57.4485L106.645 55.2385H107.515L106.265 57.4485H105.685ZM114.554 56.3485C114.24 56.3485 113.974 56.3018 113.754 56.2085C113.54 56.1085 113.367 55.9852 113.234 55.8385C113.1 55.6918 112.997 55.5485 112.924 55.4085L112.714 56.2285H111.954L113.224 49.0285H114.064L113.564 51.8385C113.777 51.5318 114.05 51.2985 114.384 51.1385C114.724 50.9718 115.09 50.8885 115.484 50.8885C115.957 50.8885 116.35 51.0018 116.664 51.2285C116.977 51.4552 117.2 51.7685 117.334 52.1685C117.474 52.5618 117.504 53.0185 117.424 53.5385C117.364 53.9385 117.247 54.3118 117.074 54.6585C116.907 54.9985 116.694 55.2952 116.434 55.5485C116.18 55.8018 115.894 55.9985 115.574 56.1385C115.254 56.2785 114.914 56.3485 114.554 56.3485ZM114.574 55.6185C114.9 55.6185 115.2 55.5352 115.474 55.3685C115.754 55.2018 115.987 54.9652 116.174 54.6585C116.367 54.3452 116.497 53.9818 116.564 53.5685C116.624 53.1752 116.607 52.8318 116.514 52.5385C116.42 52.2452 116.267 52.0185 116.054 51.8585C115.84 51.6985 115.58 51.6185 115.274 51.6185C114.934 51.6185 114.624 51.7052 114.344 51.8785C114.07 52.0452 113.837 52.2852 113.644 52.5985C113.457 52.9052 113.334 53.2652 113.274 53.6785C113.214 54.0718 113.224 54.4152 113.304 54.7085C113.39 55.0018 113.54 55.2285 113.754 55.3885C113.974 55.5418 114.247 55.6185 114.574 55.6185ZM120.434 56.3485C120.041 56.3485 119.714 56.2718 119.454 56.1185C119.194 55.9585 119.011 55.7185 118.904 55.3985C118.804 55.0785 118.798 54.6818 118.884 54.2085L119.444 51.0085H120.284L119.724 54.2085C119.644 54.6752 119.671 55.0285 119.804 55.2685C119.938 55.5085 120.224 55.6285 120.664 55.6285C120.944 55.6285 121.211 55.5685 121.464 55.4485C121.718 55.3218 121.934 55.1385 122.114 54.8985C122.294 54.6518 122.414 54.3552 122.474 54.0085L122.994 51.0085H123.834L122.924 56.2285H122.164L122.254 55.3785C122.068 55.6852 121.811 55.9252 121.484 56.0985C121.164 56.2652 120.814 56.3485 120.434 56.3485ZM124.826 56.2285L125.746 51.0085H126.586L125.666 56.2285H124.826ZM126.446 49.9985C126.279 49.9985 126.142 49.9452 126.036 49.8385C125.929 49.7252 125.872 49.5852 125.866 49.4185C125.866 49.2518 125.919 49.1185 126.026 49.0185C126.139 48.9118 126.279 48.8585 126.446 48.8585C126.606 48.8585 126.742 48.9118 126.856 49.0185C126.969 49.1185 127.026 49.2518 127.026 49.4185C127.032 49.5852 126.976 49.7252 126.856 49.8385C126.742 49.9452 126.606 49.9985 126.446 49.9985ZM127.568 56.2285L128.828 49.0285H129.668L128.408 56.2285H127.568ZM132.364 56.3485C131.904 56.3485 131.517 56.2318 131.204 55.9985C130.89 55.7652 130.667 55.4485 130.534 55.0485C130.4 54.6418 130.374 54.1852 130.454 53.6785C130.52 53.2718 130.637 52.8985 130.804 52.5585C130.97 52.2185 131.18 51.9252 131.434 51.6785C131.694 51.4318 131.984 51.2385 132.304 51.0985C132.624 50.9585 132.964 50.8885 133.324 50.8885C133.737 50.8885 134.077 50.9752 134.344 51.1485C134.617 51.3152 134.817 51.5452 134.944 51.8385L135.444 49.0285H136.284L135.014 56.2285H134.254L134.324 55.3885C134.197 55.5552 134.04 55.7118 133.854 55.8585C133.667 56.0052 133.447 56.1252 133.194 56.2185C132.947 56.3052 132.67 56.3485 132.364 56.3485ZM132.604 55.6185C132.95 55.6185 133.26 55.5352 133.534 55.3685C133.814 55.1952 134.047 54.9552 134.234 54.6485C134.42 54.3352 134.544 53.9718 134.604 53.5585C134.664 53.1652 134.65 52.8252 134.564 52.5385C134.484 52.2452 134.334 52.0185 134.114 51.8585C133.9 51.6985 133.63 51.6185 133.304 51.6185C132.984 51.6185 132.684 51.7052 132.404 51.8785C132.124 52.0452 131.887 52.2818 131.694 52.5885C131.507 52.8952 131.384 53.2552 131.324 53.6685C131.257 54.0618 131.267 54.4052 131.354 54.6985C131.447 54.9918 131.6 55.2185 131.814 55.3785C132.034 55.5385 132.297 55.6185 132.604 55.6185ZM140.269 56.2285L141.289 50.4085C141.349 50.0885 141.449 49.8285 141.589 49.6285C141.729 49.4218 141.913 49.2718 142.139 49.1785C142.366 49.0785 142.633 49.0285 142.939 49.0285H143.669L143.549 49.7485H142.959C142.706 49.7485 142.516 49.8018 142.389 49.9085C142.263 50.0085 142.176 50.1852 142.129 50.4385L141.109 56.2285H140.269ZM140.259 51.7185L140.379 51.0085H143.399L143.279 51.7185H140.259ZM143.924 56.2285L144.834 51.0085H145.604L145.494 51.9585C145.654 51.7252 145.844 51.5318 146.064 51.3785C146.284 51.2185 146.534 51.0985 146.814 51.0185C147.1 50.9318 147.414 50.8885 147.754 50.8885L147.604 51.7685H147.124C146.924 51.7685 146.724 51.7952 146.524 51.8485C146.324 51.9018 146.137 51.9885 145.964 52.1085C145.797 52.2285 145.654 52.3918 145.534 52.5985C145.414 52.8052 145.327 53.0618 145.274 53.3685L144.764 56.2285H143.924ZM150.322 56.3485C149.862 56.3485 149.472 56.2385 149.152 56.0185C148.838 55.7985 148.612 55.4918 148.472 55.0985C148.338 54.6985 148.312 54.2318 148.392 53.6985C148.458 53.2785 148.575 52.8985 148.742 52.5585C148.908 52.2185 149.122 51.9252 149.382 51.6785C149.642 51.4252 149.932 51.2318 150.252 51.0985C150.578 50.9585 150.925 50.8885 151.292 50.8885C151.785 50.8885 152.182 50.9985 152.482 51.2185C152.782 51.4385 152.988 51.7318 153.102 52.0985C153.215 52.4652 153.238 52.8652 153.172 53.2985C153.165 53.3785 153.152 53.4585 153.132 53.5385C153.118 53.6185 153.102 53.7085 153.082 53.8085H149.002L149.112 53.1585H152.382C152.435 52.8185 152.412 52.5352 152.312 52.3085C152.218 52.0752 152.072 51.8985 151.872 51.7785C151.672 51.6585 151.432 51.5985 151.152 51.5985C150.872 51.5985 150.598 51.6685 150.332 51.8085C150.072 51.9418 149.845 52.1418 149.652 52.4085C149.465 52.6685 149.335 52.9952 149.262 53.3885L149.212 53.6685C149.138 54.0952 149.148 54.4585 149.242 54.7585C149.335 55.0518 149.488 55.2718 149.702 55.4185C149.915 55.5652 150.162 55.6385 150.442 55.6385C150.815 55.6385 151.122 55.5652 151.362 55.4185C151.608 55.2718 151.805 55.0652 151.952 54.7985H152.782C152.642 55.0918 152.452 55.3585 152.212 55.5985C151.978 55.8318 151.702 56.0152 151.382 56.1485C151.062 56.2818 150.708 56.3485 150.322 56.3485ZM156.395 56.3485C155.935 56.3485 155.545 56.2385 155.225 56.0185C154.912 55.7985 154.685 55.4918 154.545 55.0985C154.412 54.6985 154.385 54.2318 154.465 53.6985C154.532 53.2785 154.649 52.8985 154.815 52.5585C154.982 52.2185 155.195 51.9252 155.455 51.6785C155.715 51.4252 156.005 51.2318 156.325 51.0985C156.652 50.9585 156.999 50.8885 157.365 50.8885C157.859 50.8885 158.255 50.9985 158.555 51.2185C158.855 51.4385 159.062 51.7318 159.175 52.0985C159.289 52.4652 159.312 52.8652 159.245 53.2985C159.239 53.3785 159.225 53.4585 159.205 53.5385C159.192 53.6185 159.175 53.7085 159.155 53.8085H155.075L155.185 53.1585H158.455C158.509 52.8185 158.485 52.5352 158.385 52.3085C158.292 52.0752 158.145 51.8985 157.945 51.7785C157.745 51.6585 157.505 51.5985 157.225 51.5985C156.945 51.5985 156.672 51.6685 156.405 51.8085C156.145 51.9418 155.919 52.1418 155.725 52.4085C155.539 52.6685 155.409 52.9952 155.335 53.3885L155.285 53.6685C155.212 54.0952 155.222 54.4585 155.315 54.7585C155.409 55.0518 155.562 55.2718 155.775 55.4185C155.989 55.5652 156.235 55.6385 156.515 55.6385C156.889 55.6385 157.195 55.5652 157.435 55.4185C157.682 55.2718 157.879 55.0652 158.025 54.7985H158.855C158.715 55.0918 158.525 55.3585 158.285 55.5985C158.052 55.8318 157.775 56.0152 157.455 56.1485C157.135 56.2818 156.782 56.3485 156.395 56.3485ZM160.309 56.2285L161.569 49.0285H162.409L161.149 56.2285H160.309ZM163.155 58.4285L164.825 55.6785H164.535L163.385 51.0085H164.205L165.195 55.0685L167.635 51.0085H168.505L164.015 58.4285H163.155Z" fill="#3B82F6"/>
<defs>
<filter id="filter0_i_763_865" x="0.222656" y="0" width="42.3657" height="64.2285" filterUnits="userSpaceOnUse" color-interpolation-filters="sRGB">
<feFlood flood-opacity="0" result="BackgroundImageFix"/>
<feBlend mode="normal" in="SourceGraphic" in2="BackgroundImageFix" result="shape"/>
<feColorMatrix in="SourceAlpha" type="matrix" values="0 0 0 0 0 0 0 0 0 0 0 0 0 0 0 0 0 0 127 0" result="hardAlpha"/>
<feOffset dy="4"/>
<feGaussianBlur stdDeviation="2.25"/>
<feComposite in2="hardAlpha" operator="arithmetic" k2="-1" k3="1"/>
<feColorMatrix type="matrix" values="0 0 0 0 0.176471 0 0 0 0 0 0 0 0 0 0.305882 0 0 0 0.7 0"/>
<feBlend mode="normal" in2="shape" result="effect1_innerShadow_763_865"/>
</filter>
<filter id="filter1_i_763_865" x="11.002" y="0" width="20.4443" height="17.1841" filterUnits="userSpaceOnUse" color-interpolation-filters="sRGB">
<feFlood flood-opacity="0" result="BackgroundImageFix"/>
<feBlend mode="normal" in="SourceGraphic" in2="BackgroundImageFix" result="shape"/>
<feColorMatrix in="SourceAlpha" type="matrix" values="0 0 0 0 0 0 0 0 0 0 0 0 0 0 0 0 0 0 127 0" result="hardAlpha"/>
<feOffset/>
<feGaussianBlur stdDeviation="1"/>
<feComposite in2="hardAlpha" operator="arithmetic" k2="-1" k3="1"/>
<feColorMatrix type="matrix" values="0 0 0 0 0 0 0 0 0 0 0 0 0 0 0 0 0 0 0.25 0"/>
<feBlend mode="normal" in2="shape" result="effect1_innerShadow_763_865"/>
</filter>
<linearGradient id="paint0_linear_763_865" x1="21.4055" y1="11.25" x2="21.4055" y2="60.2287" gradientUnits="userSpaceOnUse">
<stop offset="0.520317" stop-color="#2D17FC"/>
<stop offset="0.520417" stop-color="#E09213"/>
</linearGradient>
</defs>
</svg>
