<svg width="98" height="32" viewBox="0 0 98 32" fill="none" xmlns="http://www.w3.org/2000/svg">
<path d="M1.71985 18V4.64986H3.62702V10.4476L8.96707 4.64986H11.351L6.3924 9.95177L11.4464 18H9.11964L5.03832 11.4394L3.62702 12.946V18H1.71985ZM22.2111 18.2289C21.4228 18.2289 20.768 18.0954 20.2467 17.8284C19.7254 17.5614 19.3376 17.2053 19.0833 16.7603C18.829 16.3026 18.7019 15.8131 18.7019 15.2918C18.7019 14.6561 18.8672 14.1157 19.1978 13.6707C19.5283 13.213 19.9988 12.8634 20.6091 12.6218C21.2193 12.3802 21.9504 12.2594 22.8023 12.2594H25.3007C25.3007 11.7 25.218 11.2359 25.0527 10.8672C24.8875 10.4985 24.6395 10.2251 24.309 10.0471C23.9911 9.85642 23.5842 9.76106 23.0884 9.76106C22.5162 9.76106 22.0267 9.90092 21.6199 10.1806C21.213 10.4476 20.9587 10.8481 20.857 11.3821H18.9498C19.0261 10.7083 19.255 10.1361 19.6364 9.6657C20.0305 9.18255 20.5328 8.81383 21.1431 8.55955C21.7534 8.29254 22.4018 8.15904 23.0884 8.15904C23.9911 8.15904 24.7476 8.31797 25.3579 8.63583C25.9682 8.95369 26.4259 9.40505 26.731 9.98992C27.0489 10.5621 27.2078 11.2486 27.2078 12.0497V18H25.5486L25.396 16.3789C25.2562 16.6332 25.0909 16.8748 24.9002 17.1036C24.7095 17.3325 24.4806 17.5296 24.2136 17.6949C23.9593 17.8601 23.6605 17.9873 23.3172 18.0763C22.9867 18.178 22.6179 18.2289 22.2111 18.2289ZM22.5734 16.6841C22.9803 16.6841 23.349 16.6014 23.6796 16.4361C24.0102 16.2708 24.2899 16.0483 24.5187 15.7686C24.7603 15.4762 24.9383 15.152 25.0527 14.796C25.1799 14.4272 25.2498 14.0522 25.2625 13.6707V13.6135H22.993C22.4463 13.6135 22.0013 13.6835 21.658 13.8233C21.3274 13.9505 21.0858 14.1285 20.9333 14.3573C20.7807 14.5862 20.7044 14.8532 20.7044 15.1583C20.7044 15.4762 20.7743 15.7495 20.9142 15.9784C21.0668 16.1946 21.2829 16.3662 21.5626 16.4933C21.8424 16.6205 22.1793 16.6841 22.5734 16.6841ZM36.1329 18V8.3879H38.04V18H36.1329ZM37.1055 6.5761C36.7368 6.5761 36.4317 6.46167 36.1901 6.23281C35.9612 6.00395 35.8468 5.71152 35.8468 5.35551C35.8468 5.01222 35.9612 4.73251 36.1901 4.51636C36.4317 4.2875 36.7368 4.17307 37.1055 4.17307C37.4615 4.17307 37.7603 4.2875 38.0019 4.51636C38.2435 4.73251 38.3642 5.01222 38.3642 5.35551C38.3642 5.71152 38.2435 6.00395 38.0019 6.23281C37.7603 6.46167 37.4615 6.5761 37.1055 6.5761ZM47.1245 18V4.26843H49.0316V9.95177C49.3495 9.39234 49.7881 8.95369 50.3476 8.63583C50.9197 8.31797 51.5491 8.15904 52.2357 8.15904C52.9985 8.15904 53.6533 8.31797 54.2 8.63583C54.7468 8.94098 55.1663 9.40505 55.4588 10.0281C55.7512 10.6384 55.8974 11.4076 55.8974 12.3357V18H54.0093V12.5264C54.0093 11.6364 53.8186 10.9626 53.4372 10.5049C53.0558 10.0344 52.49 9.7992 51.7398 9.7992C51.2312 9.7992 50.7735 9.91999 50.3667 10.1616C49.9598 10.4031 49.6356 10.7591 49.394 11.2296C49.1524 11.6873 49.0316 12.2467 49.0316 12.9079V18H47.1245ZM64.6937 18V8.3879H66.4102L66.5437 9.74199C66.8488 9.24612 67.2557 8.85833 67.7642 8.57862C68.2728 8.2989 68.845 8.15904 69.4807 8.15904C69.9638 8.15904 70.4025 8.22897 70.7966 8.36883C71.1908 8.49597 71.5404 8.69305 71.8456 8.96005C72.1507 9.22705 72.3987 9.55763 72.5894 9.95177C72.9327 9.39234 73.3904 8.95369 73.9625 8.63583C74.5474 8.31797 75.164 8.15904 75.8125 8.15904C76.5881 8.15904 77.2556 8.31797 77.815 8.63583C78.3744 8.94098 78.8004 9.40505 79.0928 10.0281C79.3852 10.6384 79.5314 11.4012 79.5314 12.3167V18H77.6433V12.5074C77.6433 11.6174 77.459 10.9435 77.0903 10.4858C76.7343 10.0281 76.2066 9.7992 75.5073 9.7992C75.0369 9.7992 74.6173 9.91999 74.2486 10.1616C73.8799 10.4031 73.5874 10.7528 73.3713 11.2105C73.1679 11.6682 73.0662 12.2277 73.0662 12.8888V18H71.159V12.5074C71.159 11.6174 70.9746 10.9435 70.6059 10.4858C70.2499 10.0281 69.7223 9.7992 69.023 9.7992C68.578 9.7992 68.1711 9.91999 67.8024 10.1616C67.4337 10.4031 67.1412 10.7528 66.9251 11.2105C66.7089 11.6682 66.6009 12.2277 66.6009 12.8888V18H64.6937ZM91.5382 18.2289C90.7499 18.2289 90.0951 18.0954 89.5738 17.8284C89.0525 17.5614 88.6647 17.2053 88.4104 16.7603C88.1561 16.3026 88.029 15.8131 88.029 15.2918C88.029 14.6561 88.1943 14.1157 88.5249 13.6707C88.8554 13.213 89.3259 12.8634 89.9362 12.6218C90.5464 12.3802 91.2775 12.2594 92.1294 12.2594H94.6278C94.6278 11.7 94.5451 11.2359 94.3798 10.8672C94.2146 10.4985 93.9666 10.2251 93.636 10.0471C93.3182 9.85642 92.9113 9.76106 92.4155 9.76106C91.8433 9.76106 91.3538 9.90092 90.9469 10.1806C90.5401 10.4476 90.2858 10.8481 90.1841 11.3821H88.2769C88.3532 10.7083 88.5821 10.1361 88.9635 9.6657C89.3576 9.18255 89.8599 8.81383 90.4702 8.55955C91.0804 8.29254 91.7289 8.15904 92.4155 8.15904C93.3182 8.15904 94.0747 8.31797 94.685 8.63583C95.2953 8.95369 95.753 9.40505 96.0581 9.98992C96.376 10.5621 96.5349 11.2486 96.5349 12.0497V18H94.8757L94.7231 16.3789C94.5833 16.6332 94.418 16.8748 94.2273 17.1036C94.0366 17.3325 93.8077 17.5296 93.5407 17.6949C93.2864 17.8601 92.9876 17.9873 92.6443 18.0763C92.3137 18.178 91.945 18.2289 91.5382 18.2289ZM91.9005 16.6841C92.3074 16.6841 92.6761 16.6014 93.0067 16.4361C93.3373 16.2708 93.617 16.0483 93.8458 15.7686C94.0874 15.4762 94.2654 15.152 94.3798 14.796C94.507 14.4272 94.5769 14.0522 94.5896 13.6707V13.6135H92.3201C91.7734 13.6135 91.3284 13.6835 90.9851 13.8233C90.6545 13.9505 90.4129 14.1285 90.2604 14.3573C90.1078 14.5862 90.0315 14.8532 90.0315 15.1583C90.0315 15.4762 90.1014 15.7495 90.2413 15.9784C90.3939 16.1946 90.61 16.3662 90.8897 16.4933C91.1694 16.6205 91.5064 16.6841 91.9005 16.6841Z" fill="#2D004E"/>
<path d="M1.81505 28.2717C1.68261 28.2717 1.574 28.2293 1.48924 28.1445C1.40448 28.0545 1.3621 27.9459 1.3621 27.8187C1.3621 27.6916 1.40448 27.5856 1.48924 27.5009C1.574 27.4108 1.68261 27.3658 1.81505 27.3658C1.94749 27.3658 2.05609 27.4108 2.14085 27.5009C2.22562 27.5856 2.268 27.6916 2.268 27.8187C2.268 27.9459 2.22562 28.0545 2.14085 28.1445C2.05609 28.2293 1.94749 28.2717 1.81505 28.2717ZM3.80136 28.2717C3.66892 28.2717 3.56032 28.2293 3.47556 28.1445C3.3908 28.0545 3.34841 27.9459 3.34841 27.8187C3.34841 27.6916 3.3908 27.5856 3.47556 27.5009C3.56032 27.4108 3.66892 27.3658 3.80136 27.3658C3.93381 27.3658 4.04241 27.4108 4.12717 27.5009C4.21193 27.5856 4.25432 27.6916 4.25432 27.8187C4.25432 27.9459 4.21193 28.0545 4.12717 28.1445C4.04241 28.2293 3.93381 28.2717 3.80136 28.2717ZM5.78768 28.2717C5.65524 28.2717 5.54664 28.2293 5.46188 28.1445C5.37711 28.0545 5.33473 27.9459 5.33473 27.8187C5.33473 27.6916 5.37711 27.5856 5.46188 27.5009C5.54664 27.4108 5.65524 27.3658 5.78768 27.3658C5.92012 27.3658 6.02873 27.4108 6.11349 27.5009C6.19825 27.5856 6.24063 27.6916 6.24063 27.8187C6.24063 27.9459 6.19825 28.0545 6.11349 28.1445C6.02873 28.2293 5.92012 28.2717 5.78768 28.2717ZM8.92624 28.3273C8.55011 28.3273 8.24814 28.2717 8.02034 28.1604C7.79254 28.0439 7.63361 27.8849 7.54355 27.6836C7.45349 27.477 7.41905 27.2386 7.44025 26.9684H8.12365C8.11835 27.1115 8.14219 27.2439 8.19516 27.3658C8.25344 27.4823 8.3488 27.5777 8.48124 27.6518C8.61898 27.726 8.80175 27.7631 9.02955 27.7631C9.20967 27.7631 9.3686 27.7366 9.50634 27.6836C9.64408 27.6253 9.75533 27.5459 9.84009 27.4452C9.92485 27.3446 9.97783 27.228 9.99902 27.0956C10.0308 26.9208 10.0149 26.7857 9.95134 26.6903C9.89307 26.5897 9.79506 26.5155 9.65732 26.4678C9.51958 26.4148 9.34476 26.3751 9.13285 26.3486C8.90505 26.3168 8.70639 26.2718 8.53686 26.2135C8.36734 26.1552 8.2296 26.0784 8.12365 25.9831C8.01769 25.8877 7.94352 25.7685 7.90114 25.6255C7.86406 25.4824 7.86406 25.3129 7.90114 25.1169C7.94352 24.8891 8.03888 24.6878 8.18722 24.513C8.34085 24.3381 8.53686 24.2031 8.77526 24.1077C9.01895 24.007 9.29443 23.9567 9.6017 23.9567C10.052 23.9567 10.391 24.06 10.6189 24.2666C10.8466 24.4732 10.95 24.7673 10.9288 25.1487H10.2692C10.2798 24.9527 10.2162 24.799 10.0785 24.6878C9.94605 24.5765 9.75268 24.5209 9.49839 24.5209C9.22821 24.5209 9.01365 24.5712 8.85472 24.6719C8.70109 24.7726 8.61103 24.905 8.58454 25.0692C8.56335 25.1911 8.57395 25.3023 8.61633 25.403C8.66401 25.4983 8.75407 25.5804 8.88651 25.6493C9.02425 25.7129 9.21497 25.7606 9.45866 25.7924C9.68646 25.8188 9.88512 25.8586 10.0546 25.9116C10.2242 25.9645 10.3619 26.0387 10.4679 26.1341C10.5791 26.2241 10.6533 26.3433 10.6904 26.4916C10.7327 26.64 10.7327 26.8228 10.6904 27.04C10.6427 27.3154 10.5367 27.5485 10.3725 27.7392C10.2136 27.93 10.0096 28.0757 9.76063 28.1763C9.51164 28.277 9.23351 28.3273 8.92624 28.3273ZM13.5097 28.3273C13.1389 28.3273 12.8263 28.2372 12.572 28.0571C12.3177 27.877 12.1376 27.6227 12.0317 27.2942C11.931 26.9658 11.9178 26.5817 11.9919 26.142C12.0502 25.8135 12.1482 25.5169 12.2859 25.252C12.4237 24.9818 12.5932 24.7514 12.7945 24.5606C13.0011 24.3646 13.2289 24.2163 13.4779 24.1156C13.7322 24.0097 14.0024 23.9567 14.2885 23.9567C14.6911 23.9567 15.0116 24.0468 15.25 24.2269C15.4884 24.407 15.65 24.6481 15.7347 24.95C15.8195 25.252 15.8301 25.5831 15.7665 25.9433C15.7612 25.9963 15.7533 26.0493 15.7427 26.1023C15.7321 26.1552 15.7188 26.2188 15.7029 26.293H12.4687L12.5561 25.7765H15.1467C15.1891 25.501 15.1732 25.2705 15.099 25.0851C15.0248 24.8997 14.9083 24.7593 14.7494 24.664C14.5904 24.5686 14.3997 24.5209 14.1772 24.5209C13.9547 24.5209 13.7375 24.5765 13.5256 24.6878C13.319 24.7937 13.1389 24.9527 12.9852 25.1646C12.8369 25.3765 12.7336 25.6414 12.6753 25.9592L12.6356 26.1817C12.5773 26.5314 12.5853 26.8254 12.6594 27.0638C12.7336 27.2969 12.8554 27.4717 13.025 27.5883C13.1945 27.7048 13.3879 27.7631 13.6051 27.7631C13.9017 27.7631 14.1454 27.7075 14.3361 27.5962C14.5269 27.4797 14.6805 27.3154 14.797 27.1035H15.4566C15.3506 27.3366 15.2023 27.5459 15.0116 27.7313C14.8262 27.9167 14.6063 28.0624 14.352 28.1684C14.0977 28.2743 13.817 28.3273 13.5097 28.3273ZM16.62 28.2319L17.6213 22.5104H18.2888L17.2875 28.2319H16.62ZM18.7383 28.2319L19.7395 22.5104H20.407L19.4058 28.2319H18.7383ZM25.3586 28.3273C25.1043 28.3273 24.8924 28.2902 24.7229 28.216C24.5534 28.1366 24.4156 28.0386 24.3097 27.922C24.209 27.8055 24.1296 27.6916 24.0713 27.5803L23.9044 28.2319H23.3005L24.3097 22.5104H24.9772L24.5878 24.7116C24.7573 24.4626 24.9772 24.2746 25.2474 24.1474C25.5176 24.0203 25.8063 23.9567 26.1136 23.9567C26.495 23.9567 26.8102 24.0494 27.0592 24.2348C27.3135 24.4203 27.4909 24.6772 27.5916 25.0057C27.6976 25.3288 27.7134 25.7023 27.6393 26.1261C27.5863 26.444 27.4883 26.738 27.3453 27.0082C27.2075 27.2731 27.038 27.5062 26.8367 27.7075C26.6354 27.9035 26.4076 28.0571 26.1533 28.1684C25.9043 28.2743 25.6394 28.3273 25.3586 28.3273ZM25.3745 27.7472C25.6235 27.7472 25.8566 27.6836 26.0738 27.5565C26.291 27.424 26.4764 27.2386 26.6301 27.0002C26.789 26.7565 26.8976 26.4705 26.9559 26.142C27.0142 25.8135 27.0062 25.5301 26.932 25.2917C26.8632 25.048 26.744 24.8626 26.5744 24.7355C26.4049 24.603 26.1957 24.5368 25.9467 24.5368C25.6818 24.5368 25.4407 24.603 25.2235 24.7355C25.0063 24.8626 24.8209 25.048 24.6673 25.2917C24.519 25.5301 24.4156 25.8135 24.3574 26.142C24.2991 26.4705 24.3017 26.7565 24.3653 27.0002C24.4289 27.2386 24.5454 27.424 24.715 27.5565C24.8898 27.6836 25.1096 27.7472 25.3745 27.7472ZM30.3417 28.3273C29.9549 28.3273 29.6291 28.2372 29.3642 28.0571C29.0993 27.877 28.9139 27.6227 28.808 27.2942C28.702 26.9658 28.6861 26.5817 28.7603 26.142C28.8186 25.8082 28.9192 25.5089 29.0623 25.244C29.2053 24.9739 29.3801 24.7434 29.5867 24.5527C29.7986 24.362 30.0344 24.2163 30.294 24.1156C30.5536 24.0097 30.829 23.9567 31.1204 23.9567C31.5124 23.9567 31.8382 24.0468 32.0978 24.2269C32.3627 24.407 32.5481 24.6613 32.6541 24.9898C32.7653 25.3129 32.7812 25.697 32.7018 26.142C32.6435 26.4758 32.5428 26.7777 32.3998 27.0479C32.2621 27.3128 32.0872 27.5406 31.8753 27.7313C31.6687 27.922 31.4356 28.0704 31.176 28.1763C30.9165 28.277 30.6383 28.3273 30.3417 28.3273ZM30.437 27.7551C30.6807 27.7551 30.9112 27.6969 31.1284 27.5803C31.3456 27.4585 31.531 27.2784 31.6846 27.04C31.8435 26.7963 31.9548 26.4969 32.0184 26.142C32.0819 25.7818 32.0793 25.4824 32.0104 25.244C31.9416 25.0057 31.8197 24.8282 31.6449 24.7116C31.4754 24.5898 31.2687 24.5289 31.0251 24.5289C30.7867 24.5289 30.5589 24.5898 30.3417 24.7116C30.1244 24.8282 29.9364 25.0057 29.7775 25.244C29.6185 25.4824 29.5073 25.7818 29.4437 26.142C29.3801 26.4969 29.3828 26.7963 29.4516 27.04C29.5258 27.2784 29.6477 27.4585 29.8172 27.5803C29.992 27.6969 30.1986 27.7551 30.437 27.7551ZM33.629 28.2319L34.6302 22.5104H35.2977L34.2965 28.2319H33.629ZM37.4398 28.3273C37.069 28.3273 36.7564 28.2319 36.5021 28.0412C36.2531 27.8505 36.0783 27.5909 35.9777 27.2625C35.877 26.9287 35.8638 26.5526 35.9379 26.1341C35.9962 25.8162 36.0942 25.5248 36.2319 25.2599C36.3697 24.9951 36.5392 24.7673 36.7405 24.5765C36.9418 24.3805 37.167 24.2295 37.416 24.1236C37.6703 24.0123 37.9378 23.9567 38.2186 23.9567C38.547 23.9567 38.8172 24.0229 39.0291 24.1554C39.241 24.2878 39.3973 24.4732 39.498 24.7116L39.8873 22.5104H40.5548L39.5456 28.2319H38.9417L38.9973 27.5644C38.8967 27.6969 38.7722 27.8214 38.6238 27.9379C38.4755 28.0545 38.3007 28.1498 38.0994 28.224C37.9034 28.2929 37.6835 28.3273 37.4398 28.3273ZM37.6305 27.7472C37.8954 27.7472 38.1365 27.6836 38.3537 27.5565C38.5709 27.424 38.7536 27.2386 38.902 27.0002C39.0556 26.7565 39.1616 26.4705 39.2198 26.142C39.2781 25.8135 39.2755 25.5301 39.2119 25.2917C39.1483 25.048 39.0291 24.8626 38.8543 24.7355C38.6848 24.603 38.4676 24.5368 38.2027 24.5368C37.9537 24.5368 37.7179 24.603 37.4954 24.7355C37.2782 24.8626 37.0928 25.048 36.9392 25.2917C36.7855 25.5301 36.6796 25.8135 36.6213 26.142C36.563 26.4705 36.5683 26.7565 36.6372 27.0002C36.7061 27.2386 36.8253 27.424 36.9948 27.5565C37.1696 27.6836 37.3815 27.7472 37.6305 27.7472ZM41.0006 28.2319L42.0019 22.5104H42.6694L41.6681 28.2319H41.0006ZM43.2778 29.9802L44.5969 27.7869H44.3664L43.4605 24.0521H44.1042L44.8909 27.3022L46.8299 24.0521H47.5212L43.9532 29.9802H43.2778ZM46.9599 29.2094L47.7228 27.4532H48.4141L47.4208 29.2094H46.9599ZM53.976 28.3273C53.7217 28.3273 53.5098 28.2902 53.3403 28.216C53.1708 28.1366 53.033 28.0386 52.9271 27.922C52.8264 27.8055 52.7469 27.6916 52.6887 27.5803L52.5218 28.2319H51.9179L52.9271 22.5104H53.5946L53.2052 24.7116C53.3747 24.4626 53.5946 24.2746 53.8648 24.1474C54.1349 24.0203 54.4237 23.9567 54.7309 23.9567C55.1124 23.9567 55.4276 24.0494 55.6766 24.2348C55.9308 24.4203 56.1083 24.6772 56.209 25.0057C56.3149 25.3288 56.3308 25.7023 56.2567 26.1261C56.2037 26.444 56.1057 26.738 55.9626 27.0082C55.8249 27.2731 55.6554 27.5062 55.4541 27.7075C55.2527 27.9035 55.0249 28.0571 54.7707 28.1684C54.5217 28.2743 54.2568 28.3273 53.976 28.3273ZM53.9919 27.7472C54.2409 27.7472 54.474 27.6836 54.6912 27.5565C54.9084 27.424 55.0938 27.2386 55.2474 27.0002C55.4064 26.7565 55.515 26.4705 55.5733 26.142C55.6315 25.8135 55.6236 25.5301 55.5494 25.2917C55.4805 25.048 55.3613 24.8626 55.1918 24.7355C55.0223 24.603 54.813 24.5368 54.564 24.5368C54.2992 24.5368 54.0581 24.603 53.8409 24.7355C53.6237 24.8626 53.4383 25.048 53.2847 25.2917C53.1363 25.5301 53.033 25.8135 52.9747 26.142C52.9165 26.4705 52.9191 26.7565 52.9827 27.0002C53.0463 27.2386 53.1628 27.424 53.3323 27.5565C53.5072 27.6836 53.727 27.7472 53.9919 27.7472ZM58.665 28.3273C58.3577 28.3273 58.0982 28.269 57.8862 28.1525C57.6796 28.0306 57.5339 27.8452 57.4492 27.5962C57.3697 27.3419 57.3644 27.0214 57.4333 26.6347L57.8862 24.0521H58.5538L58.1008 26.6426C58.0372 27.0135 58.0558 27.2916 58.1564 27.477C58.2571 27.6624 58.4849 27.7551 58.8398 27.7551C59.0623 27.7551 59.2742 27.7075 59.4755 27.6121C59.6769 27.5114 59.849 27.3658 59.9921 27.175C60.1351 26.9843 60.2305 26.7512 60.2781 26.4758L60.6993 24.0521H61.3668L60.6357 28.2319H60.0318L60.1033 27.5644C59.955 27.8081 59.7537 27.9962 59.4994 28.1286C59.2451 28.2611 58.967 28.3273 58.665 28.3273ZM62.1468 28.2319L62.8858 24.0521H63.5533L62.8143 28.2319H62.1468ZM63.4341 23.2574C63.3016 23.2574 63.193 23.215 63.1083 23.1303C63.0235 23.0402 62.9785 22.929 62.9732 22.7965C62.9732 22.6641 63.0156 22.5581 63.1003 22.4787C63.1904 22.3939 63.3016 22.3515 63.4341 22.3515C63.5612 22.3515 63.6698 22.3939 63.7599 22.4787C63.85 22.5581 63.895 22.6641 63.895 22.7965C63.9003 22.929 63.8553 23.0402 63.7599 23.1303C63.6698 23.215 63.5612 23.2574 63.4341 23.2574ZM64.3258 28.2319L65.327 22.5104H65.9945L64.9933 28.2319H64.3258ZM68.1366 28.3273C67.7658 28.3273 67.4532 28.2319 67.1989 28.0412C66.9499 27.8505 66.7751 27.5909 66.6745 27.2625C66.5738 26.9287 66.5606 26.5526 66.6347 26.1341C66.693 25.8162 66.791 25.5248 66.9288 25.2599C67.0665 24.9951 67.236 24.7673 67.4373 24.5765C67.6386 24.3805 67.8638 24.2295 68.1128 24.1236C68.3671 24.0123 68.6346 23.9567 68.9154 23.9567C69.2438 23.9567 69.514 24.0229 69.7259 24.1554C69.9378 24.2878 70.0941 24.4732 70.1948 24.7116L70.5842 22.5104H71.2517L70.2425 28.2319H69.6385L69.6941 27.5644C69.5935 27.6969 69.469 27.8214 69.3207 27.9379C69.1723 28.0545 68.9975 28.1498 68.7962 28.224C68.6002 28.2929 68.3803 28.3273 68.1366 28.3273ZM68.3273 27.7472C68.5922 27.7472 68.8333 27.6836 69.0505 27.5565C69.2677 27.424 69.4505 27.2386 69.5988 27.0002C69.7524 26.7565 69.8584 26.4705 69.9166 26.142C69.9749 25.8135 69.9723 25.5301 69.9087 25.2917C69.8451 25.048 69.7259 24.8626 69.5511 24.7355C69.3816 24.603 69.1644 24.5368 68.8995 24.5368C68.6505 24.5368 68.4148 24.603 68.1923 24.7355C67.975 24.8626 67.7896 25.048 67.636 25.2917C67.4824 25.5301 67.3764 25.8135 67.3181 26.142C67.2599 26.4705 67.2652 26.7565 67.334 27.0002C67.4029 27.2386 67.5221 27.424 67.6916 27.5565C67.8664 27.6836 68.0784 27.7472 68.3273 27.7472ZM74.4036 28.2319L75.2142 23.6071C75.2619 23.3528 75.3413 23.1462 75.4526 22.9872C75.5638 22.823 75.7095 22.7038 75.8896 22.6296C76.0697 22.5502 76.2817 22.5104 76.5253 22.5104H77.1372L77.0419 23.0826H76.5412C76.3399 23.0826 76.1889 23.125 76.0883 23.2097C75.9876 23.2892 75.9188 23.4296 75.8817 23.6309L75.0711 28.2319H74.4036ZM74.3877 24.6163L74.4831 24.0521H76.9147L76.8194 24.6163H74.3877ZM77.3305 28.2319L78.0616 24.0521H78.6656L78.5781 24.8149C78.7053 24.6242 78.8563 24.4653 79.0311 24.3381C79.2112 24.211 79.4152 24.1156 79.643 24.0521C79.8761 23.9885 80.1304 23.9567 80.4058 23.9567L80.2866 24.656H79.8734C79.7145 24.656 79.5556 24.6772 79.3966 24.7196C79.243 24.762 79.0973 24.8308 78.9596 24.9262C78.8271 25.0215 78.7106 25.1513 78.6099 25.3156C78.5146 25.4798 78.4457 25.6864 78.4033 25.9354L77.9981 28.2319H77.3305ZM82.4612 28.3273C82.0904 28.3273 81.7778 28.2372 81.5235 28.0571C81.2692 27.877 81.0891 27.6227 80.9832 27.2942C80.8825 26.9658 80.8693 26.5817 80.9434 26.142C81.0017 25.8135 81.0997 25.5169 81.2374 25.252C81.3752 24.9818 81.5447 24.7514 81.746 24.5606C81.9526 24.3646 82.1804 24.2163 82.4294 24.1156C82.6837 24.0097 82.9539 23.9567 83.24 23.9567C83.6426 23.9567 83.9631 24.0468 84.2015 24.2269C84.4399 24.407 84.6015 24.6481 84.6862 24.95C84.771 25.252 84.7816 25.5831 84.718 25.9433C84.7127 25.9963 84.7048 26.0493 84.6942 26.1023C84.6836 26.1552 84.6703 26.2188 84.6544 26.293H81.4202L81.5076 25.7765H84.0982C84.1406 25.501 84.1247 25.2705 84.0505 25.0851C83.9763 24.8997 83.8598 24.7593 83.7009 24.664C83.5419 24.5686 83.3512 24.5209 83.1287 24.5209C82.9062 24.5209 82.689 24.5765 82.4771 24.6878C82.2705 24.7937 82.0904 24.9527 81.9367 25.1646C81.7884 25.3765 81.6851 25.6414 81.6268 25.9592L81.5871 26.1817C81.5288 26.5314 81.5368 26.8254 81.6109 27.0638C81.6851 27.2969 81.8069 27.4717 81.9765 27.5883C82.146 27.7048 82.3394 27.7631 82.5566 27.7631C82.8532 27.7631 83.0969 27.7075 83.2876 27.5962C83.4784 27.4797 83.632 27.3154 83.7485 27.1035H84.4081C84.3021 27.3366 84.1538 27.5459 83.9631 27.7313C83.7777 27.9167 83.5578 28.0624 83.3035 28.1684C83.0492 28.2743 82.7685 28.3273 82.4612 28.3273ZM87.28 28.3273C86.9092 28.3273 86.5966 28.2372 86.3423 28.0571C86.088 27.877 85.9079 27.6227 85.802 27.2942C85.7013 26.9658 85.6881 26.5817 85.7622 26.142C85.8205 25.8135 85.9185 25.5169 86.0562 25.252C86.194 24.9818 86.3635 24.7514 86.5648 24.5606C86.7714 24.3646 86.9992 24.2163 87.2482 24.1156C87.5025 24.0097 87.7727 23.9567 88.0588 23.9567C88.4614 23.9567 88.7819 24.0468 89.0203 24.2269C89.2587 24.407 89.4203 24.6481 89.505 24.95C89.5898 25.252 89.6004 25.5831 89.5368 25.9433C89.5315 25.9963 89.5236 26.0493 89.513 26.1023C89.5024 26.1552 89.4891 26.2188 89.4732 26.293H86.239L86.3264 25.7765H88.917C88.9594 25.501 88.9435 25.2705 88.8693 25.0851C88.7951 24.8997 88.6786 24.7593 88.5197 24.664C88.3607 24.5686 88.17 24.5209 87.9475 24.5209C87.725 24.5209 87.5078 24.5765 87.2959 24.6878C87.0893 24.7937 86.9092 24.9527 86.7555 25.1646C86.6072 25.3765 86.5039 25.6414 86.4456 25.9592L86.4059 26.1817C86.3476 26.5314 86.3556 26.8254 86.4297 27.0638C86.5039 27.2969 86.6257 27.4717 86.7953 27.5883C86.9648 27.7048 87.1582 27.7631 87.3754 27.7631C87.672 27.7631 87.9157 27.7075 88.1064 27.5962C88.2972 27.4797 88.4508 27.3154 88.5673 27.1035H89.2269C89.1209 27.3366 88.9726 27.5459 88.7819 27.7313C88.5965 27.9167 88.3766 28.0624 88.1223 28.1684C87.868 28.2743 87.5873 28.3273 87.28 28.3273ZM90.3903 28.2319L91.3916 22.5104H92.0591L91.0578 28.2319H90.3903ZM92.6675 29.9802L93.9866 27.7869H93.7562L92.8503 24.0521H93.4939L94.2806 27.3022L96.2196 24.0521H96.9109L93.3429 29.9802H92.6675Z" fill="#3B82F6"/>
</svg>
