<svg width="32" height="32" viewBox="0 0 32 32" fill="none" xmlns="http://www.w3.org/2000/svg">
<path fill-rule="evenodd" clip-rule="evenodd" d="M16.6876 2.89307C16.302 2.52783 15.698 2.52783 15.3124 2.89307C12.6234 5.4397 8.99499 7.00014 5 7.00014C4.93644 7.00014 4.87298 6.99975 4.80961 6.99896C4.37312 6.99354 3.98356 7.27187 3.84722 7.68655C3.29716 9.35957 3 11.1462 3 13.0002C3 20.9229 8.41874 27.5774 15.7507 29.4646C15.9143 29.5067 16.0858 29.5067 16.2493 29.4646C23.5813 27.5774 29 20.9229 29 13.0002C29 11.1462 28.7028 9.35957 28.1528 7.68655C28.0164 7.27187 27.6269 6.99354 27.1904 6.99896C27.127 6.99975 27.0636 7.00014 27 7.00014C23.005 7.00014 19.3766 5.4397 16.6876 2.89307ZM20.8137 13.5812C21.1347 13.1318 21.0307 12.5073 20.5812 12.1863C20.1318 11.8653 19.5073 11.9693 19.1863 12.4188L14.8724 18.4582L12.7071 16.2929C12.3166 15.9024 11.6834 15.9024 11.2929 16.2929C10.9024 16.6834 10.9024 17.3166 11.2929 17.7071L14.2929 20.7071C14.5007 20.915 14.7895 21.0208 15.0825 20.9966C15.3754 20.9723 15.6429 20.8204 15.8137 20.5812L20.8137 13.5812Z" fill="url(#paint0_linear_395_497)"/>
<defs>
<linearGradient id="paint0_linear_395_497" x1="3" y1="2.61914" x2="29.8622" y2="28.6048" gradientUnits="userSpaceOnUse">
<stop stop-color="#0FAFFF"/>
<stop offset="1" stop-color="#0B2947"/>
</linearGradient>
</defs>
</svg>
