<svg width="130" height="25" viewBox="0 0 130 25" fill="none" xmlns="http://www.w3.org/2000/svg">
<g clip-path="url(#clip0_271_19652)">
<path d="M76.1495 16.0717L84.411 8.21456V7.85742V5.35742H67.3492V8.92885H75.7005L67.3492 16.786V17.5003V19.6431H84.411V16.0717H76.1495Z" fill="white"/>
<path d="M129.31 5.35742H123.923V19.6431H129.31V5.35742Z" fill="white"/>
<path d="M122.665 5.35742H115.392L109.555 10.4467V5.35742H104.167V19.6431H109.555V14.0181L115.212 19.6431H122.486L114.404 12.1431L122.665 5.35742Z" fill="white"/>
<path d="M96.9829 5.35742V14.0181C96.9829 15.2681 96.6237 16.786 93.7501 16.786C90.8766 16.786 90.697 15.2681 90.697 14.0181V5.35742H85.309V14.4646C85.309 18.7503 86.4764 20.536 93.5705 20.536C100.665 20.536 102.371 18.7503 102.371 14.4646V5.35742H96.9829Z" fill="white"/>
<path d="M61.0633 5.35742V14.0181C61.0633 15.2681 60.7041 16.786 57.8306 16.786C54.957 16.786 54.7774 15.2681 54.7774 14.0181V5.35742H49.3895V14.4646C49.3895 18.7503 51.0956 20.536 58.1898 20.536C65.2839 20.536 66.4512 18.7503 66.4512 14.4646V5.35742H61.0633Z" fill="white"/>
<path d="M37.2666 15.1786C37.536 16.1607 38.1646 16.7857 39.9606 16.7857C41.3076 16.7857 41.9362 16.5179 41.9362 16.0714C41.9362 14.9107 41.128 14.9107 35.6502 14.1964C30.2623 13.4821 30.4419 10.0893 30.4419 9.55357C30.4419 5 36.9074 5 39.1524 5C43.1933 5 47.5935 6.25 47.5935 9.73214H41.3076C41.128 9.01786 40.23 8.30357 38.6136 8.30357C37.2666 8.30357 36.5482 8.57143 36.5482 9.10714C36.5482 10.0893 36.9972 10 42.2954 10.8036C47.6833 11.6071 48.2221 14.1964 48.2221 15.625C48.2221 20.3571 41.577 20.0893 39.332 20.0893C33.9441 20.0893 30.5317 18.9286 30.3521 15.0893H37.2666V15.1786Z" fill="white"/>
<path d="M24.6947 8.66071C23.1681 9.91072 18.5884 11.6964 15.8046 9.91072L9.33908 5.44643L8.26149 6.07143L24.6947 17.4107C20.5639 19.0179 15.8046 22.2321 12.3922 25.0893L0.179598 16.4286C1.97557 15.0893 6.19612 13.4821 8.97989 15.2679L15.5352 19.8214L16.4332 19.1964L0 7.76786C3.50216 6.51786 9.87787 2.58929 12.3024 0L24.6947 8.66071Z" fill="white"/>
</g>
<defs>
<clipPath id="clip0_271_19652">
<rect width="129.31" height="25" fill="white"/>
</clipPath>
</defs>
</svg>
